<svg xmlns="http://www.w3.org/2000/svg" viewBox="0 0 2709.73 940.44"><defs><style>.cls-1,.cls-10,.cls-11,.cls-12,.cls-13,.cls-14,.cls-15,.cls-16,.cls-17,.cls-18,.cls-19,.cls-2,.cls-20,.cls-21,.cls-22,.cls-23,.cls-24,.cls-25,.cls-26,.cls-27,.cls-28,.cls-29,.cls-3,.cls-30,.cls-31,.cls-32,.cls-33,.cls-34,.cls-35,.cls-36,.cls-37,.cls-38,.cls-39,.cls-4,.cls-40,.cls-41,.cls-42,.cls-43,.cls-44,.cls-45,.cls-46,.cls-47,.cls-48,.cls-49,.cls-5,.cls-50,.cls-51,.cls-52,.cls-53,.cls-54,.cls-55,.cls-56,.cls-57,.cls-58,.cls-59,.cls-6,.cls-60,.cls-61,.cls-62,.cls-63,.cls-64,.cls-65,.cls-66,.cls-67,.cls-68,.cls-69,.cls-7,.cls-70,.cls-71,.cls-72,.cls-73,.cls-74,.cls-75,.cls-76,.cls-77,.cls-78,.cls-79,.cls-8,.cls-80,.cls-81,.cls-82,.cls-83,.cls-84,.cls-85,.cls-86,.cls-87,.cls-88,.cls-89,.cls-9,.cls-90,.cls-91,.cls-92,.cls-93,.cls-94{fill:none;stroke-miterlimit:10;stroke-width:1.5px;}.cls-1{stroke:#0071bc;}.cls-2{stroke:#0071b8;}.cls-3{stroke:#0070b3;}.cls-4{stroke:#0070af;}.cls-5{stroke:#0070ab;}.cls-6{stroke:#0070a7;}.cls-7{stroke:#006fa2;}.cls-8{stroke:#006f9e;}.cls-9{stroke:#006f9a;}.cls-10{stroke:#006e95;}.cls-11{stroke:#006e91;}.cls-12{stroke:#006e8d;}.cls-13{stroke:#006e89;}.cls-14{stroke:#006d84;}.cls-15{stroke:#006d80;}.cls-16{stroke:#006d7c;}.cls-17{stroke:#006c77;}.cls-18{stroke:#006c73;}.cls-19{stroke:#006c6f;}.cls-20{stroke:#006b6a;}.cls-21{stroke:#006b66;}.cls-22{stroke:#006b62;}.cls-23{stroke:#006b5e;}.cls-24{stroke:#006a59;}.cls-25{stroke:#006a55;}.cls-26{stroke:#006a51;}.cls-27{stroke:#00694c;}.cls-28{stroke:#006948;}.cls-29{stroke:#006944;}.cls-30{stroke:#006940;}.cls-31{stroke:#00683b;}.cls-32{stroke:#006837;}.cls-33{stroke:#01663a;}.cls-34{stroke:#03643d;}.cls-35{stroke:#046340;}.cls-36{stroke:#066143;}.cls-37{stroke:#075f46;}.cls-38{stroke:#095d49;}.cls-39{stroke:#0a5c4c;}.cls-40{stroke:#0c5a4e;}.cls-41{stroke:#0d5851;}.cls-42{stroke:#0f5654;}.cls-43{stroke:#105457;}.cls-44{stroke:#12535a;}.cls-45{stroke:#13515d;}.cls-46{stroke:#154f60;}.cls-47{stroke:#164d63;}.cls-48{stroke:#184c66;}.cls-49{stroke:#194a69;}.cls-50{stroke:#1b486c;}.cls-51{stroke:#1c466f;}.cls-52{stroke:#1e4572;}.cls-53{stroke:#1f4375;}.cls-54{stroke:#214178;}.cls-55{stroke:#223f7b;}.cls-56{stroke:#243d7d;}.cls-57{stroke:#253c80;}.cls-58{stroke:#273a83;}.cls-59{stroke:#283886;}.cls-60{stroke:#2a3689;}.cls-61{stroke:#2b358c;}.cls-62{stroke:#2d338f;}.cls-63{stroke:#2e3192;}.cls-64{stroke:#352f8d;}.cls-65{stroke:#3b2e89;}.cls-66{stroke:#422c84;}.cls-67{stroke:#492b7f;}.cls-68{stroke:#50297a;}.cls-69{stroke:#562876;}.cls-70{stroke:#5d2671;}.cls-71{stroke:#64246c;}.cls-72{stroke:#6b2368;}.cls-73{stroke:#712163;}.cls-74{stroke:#78205e;}.cls-75{stroke:#7f1e59;}.cls-76{stroke:#861c55;}.cls-77{stroke:#8c1b50;}.cls-78{stroke:#93194b;}.cls-79{stroke:#9a1847;}.cls-80{stroke:#a11642;}.cls-81{stroke:#a7153d;}.cls-82{stroke:#ae1339;}.cls-83{stroke:#b51134;}.cls-84{stroke:#bc102f;}.cls-85{stroke:#c20e2a;}.cls-86{stroke:#c90d26;}.cls-87{stroke:#d00b21;}.cls-88{stroke:#d7091c;}.cls-89{stroke:#dd0818;}.cls-90{stroke:#e40613;}.cls-91{stroke:#eb050e;}.cls-92{stroke:#f20309;}.cls-93{stroke:#f80205;}.cls-94{stroke:red;}</style></defs><g id="Layer_2" data-name="Layer 2"><g id="Layer_1-2" data-name="Layer 1"><path class="cls-1" d="M38.93,738.53c82.95-17.18,146.54-75.64,217.67-116.95,38.72-22.49,86.38-37,128.11-20.74,24.9,9.68,44.63,29.12,62.42,49.06,44.47,49.84,81.27,112.79,134.58,153.78,27,20.8,61.32,34.47,95.13,29.81,29.49-4.07,55.19-21.27,81.37-35.44,69.51-37.62,149.31-53.77,228-49.64a475.79,475.79,0,0,1,116,20.79c33.77,10.49,71.85,39.32,107.14,37.49,21.19-1.1,39.6-14.05,57.73-25.07,67.41-41,149.5-61.12,228-49,40,6.19,78.46,21,111.61,44.3,32.1,22.55,55.71,66.52,96,74.57,14.07,2.82,28.63.67,42.7-2.11,49.76-9.85,97-27.95,141.37-52.38,43.41-23.9,86.93-52.53,138.13-54.17,35.12-1.12,69.46,11,98.65,30,29.42,19.18,53.54,38.42,91.29,36.77"/><path class="cls-2" d="M40.09,732.66c46.94-9.56,87.05-33.44,126-59.21,30.71-20.4,60.71-41.89,92.18-59.83,39.13-22.27,87-36.15,129.19-20,25.11,9.6,45.21,28.72,63.43,48.35,19,20.48,36.77,43.2,54.89,65.6,25.32,31.28,51.5,62,83.12,85.25,27.52,20.28,62,33.52,96.07,28.81a124.61,124.61,0,0,0,28.88-7.92c18.34-7.29,35.68-18,53.22-27.4a436.81,436.81,0,0,1,229.26-51.21q15.6.83,31.13,2.78a461.22,461.22,0,0,1,85.31,19.23c19.28,6.31,39.89,18.37,60.64,27.35,15.74,6.8,31.56,11.8,46.9,11.2,21.31-.85,40-13.31,58.34-24A408.09,408.09,0,0,1,1343,741.34c52.79-19.42,109.59-27.94,164.84-20.76a278.81,278.81,0,0,1,41.73,8.69A256.17,256.17,0,0,1,1620.3,762c32.67,21.71,57.15,64.53,97.63,72.85a85.36,85.36,0,0,0,23.88,1.15c6.37-.49,12.74-1.46,19-2.55A493.22,493.22,0,0,0,1894,789.69q4.57-2.27,9.13-4.6c43.92-22.62,88.16-50.3,139.38-52.91,34.92-1.65,68.87,9.24,97.81,26.8,29.14,17.76,53.14,35.57,90.51,33.35"/><path class="cls-3" d="M41.26,726.78c47.34-9.47,87.19-34.52,126-60.84C198.11,645,228.3,623.4,260,605.67c39.55-22,87.67-35.34,130.28-19.36,25.31,9.51,45.79,28.31,64.45,47.63,19.51,20.17,37.76,42.51,56.35,64.5,26,30.71,52.91,60.75,85.08,83.43,28,19.75,62.74,32.55,97,27.79a128.24,128.24,0,0,0,29.1-7.88c18.49-7.23,36-17.84,53.71-27.31,70.62-37.79,150.86-57.08,230.51-52.78q15.69.84,31.34,2.9a445.7,445.7,0,0,1,85.52,20.34c19.34,6.64,40,18.88,60.78,28,15.79,6.93,31.69,12,47.14,11.59,21.43-.6,40.33-12.57,59-23a455.59,455.59,0,0,1,65-29.78c53.23-19.48,109.92-29.11,165.3-23.28a282.12,282.12,0,0,1,41.89,7.61A254.88,254.88,0,0,1,1633.86,747c33.24,20.88,58.6,62.55,99.31,71.14a90.19,90.19,0,0,0,24,1.46c6.4-.37,12.79-1.2,19.09-2.15a499.88,499.88,0,0,0,133.94-40q4.63-2.12,9.23-4.33c44.43-21.33,89.37-48.24,140.64-51.64,34.71-2.3,68.26,7.49,97,23.6,28.86,16.34,52.74,32.71,89.73,29.94"/><path class="cls-4" d="M42.43,720.9c47.74-9.38,87.29-35.65,125.94-62.47,31-21.52,61.39-43.18,93.32-60.71,40-21.84,88.3-34.53,131.36-18.67,25.51,9.42,46.37,27.91,65.46,46.91,20,19.85,38.75,41.83,57.82,63.4,26.69,30.14,54.32,59.53,87,81.6,28.44,19.22,63.44,31.59,98,26.79a132.91,132.91,0,0,0,29.33-7.85c18.64-7.17,36.32-17.72,54.2-27.22C856,724.8,936.51,704,1016.63,708.33q15.78.85,31.53,3a432.07,432.07,0,0,1,85.74,21.43c19.41,7,40,19.39,60.93,28.69,15.83,7,31.81,12.2,47.38,12,21.55-.35,40.69-11.83,59.58-21.91a515,515,0,0,1,65.63-29.29c53.68-19.55,110.27-30.29,165.76-25.82a285.59,285.59,0,0,1,42,6.55,253.18,253.18,0,0,1,72.2,29c33.81,20,60,60.56,101,69.42a95.21,95.21,0,0,0,24.09,1.77c6.43-.25,12.84-.94,19.17-1.75a508.2,508.2,0,0,0,134.74-36.22q4.68-2,9.33-4.06c44.94-20,90.59-46.08,141.89-50.36,34.5-2.89,67.7,5.66,96.12,20.39,28.62,14.84,52.34,29.85,89,26.53"/><path class="cls-5" d="M43.59,715c48.15-9.29,87.4-36.78,125.91-64.11,31.13-22.09,61.73-43.82,93.89-61.14,40.38-21.62,88.94-33.72,132.44-18,25.71,9.34,46.95,27.51,66.47,46.21,20.47,19.53,39.74,41.14,59.29,62.3,27.38,29.56,55.73,58.29,89,79.77,28.91,18.69,64.15,30.62,98.9,25.78A136.71,136.71,0,0,0,739.05,778c18.78-7.1,36.65-17.59,54.7-27.14,71.72-38,152.42-60.37,233-55.91q15.87.87,31.73,3.15c29.6,4.27,58.19,12.17,86,22.54,19.5,7.28,40.13,19.9,61.09,29.35,15.87,7.16,31.93,12.41,47.61,12.36,21.67-.1,41-11.09,60.2-20.85a587.43,587.43,0,0,1,66.31-28.81c54.12-19.61,110.61-31.47,166.22-28.35a288.42,288.42,0,0,1,42.21,5.47A253.78,253.78,0,0,1,1661,717.05c34.33,19.27,61.48,58.58,102.63,67.71a101.24,101.24,0,0,0,24.2,2.09c6.45-.14,12.89-.7,19.24-1.35A518.18,518.18,0,0,0,1942.63,753c3.14-1.23,6.29-2.5,9.42-3.79,45.45-18.75,91.81-43.92,143.15-49.1,34.28-3.46,67.1,3.89,95.27,17.19,28.34,13.39,52,27,88.17,23.11"/><path class="cls-6" d="M44.76,709.14c48.55-9.2,87.5-37.92,125.87-65.74,31.26-22.67,62.06-44.46,94.46-61.58,40.79-21.41,89.58-32.91,133.51-17.3,25.92,9.25,47.54,27.11,67.49,45.49,21,19.21,40.73,40.46,60.76,61.2,28.06,29,57.13,57.07,91,77.95,29.38,18.16,64.86,29.66,99.84,24.77a141.75,141.75,0,0,0,29.78-7.78c18.93-7,37-17.48,55.19-27.06,72.28-38,153.2-62,234.26-57.48q16,.89,31.94,3.28c29.78,4.48,58.39,12.83,86.16,23.63,19.57,7.61,40.21,20.41,61.23,30,15.92,7.27,32.06,12.6,47.86,12.74,21.79.15,41.41-10.35,60.82-19.8a686.21,686.21,0,0,1,67-28.33c54.56-19.67,110.95-32.64,166.68-30.88a294,294,0,0,1,42.36,4.4,252.82,252.82,0,0,1,73.65,25.4c34.89,18.44,62.92,56.59,104.29,66a108,108,0,0,0,24.31,2.4c6.48,0,12.94-.44,19.32-1,47.32-3.85,92.53-13,136.36-28.7q4.77-1.71,9.52-3.52c46-17.46,93-41.75,144.41-47.83,34.06-4,66.49,2.11,94.42,14s51.55,24.14,87.39,19.7"/><path class="cls-7" d="M45.92,703.27c49-9.13,87.61-39.07,125.83-67.38,31.4-23.25,62.41-45.11,95-62,41.22-21.19,90.23-32.1,134.6-16.61C427.5,566.41,449.5,584,469.89,602c21.42,18.9,41.72,39.78,62.22,60.1,28.75,28.43,58.54,55.85,92.94,76.12C654.89,755.89,690.61,767,725.83,762a146.67,146.67,0,0,0,30-7.75c19.08-7,37.3-17.35,55.68-27,72.84-38.13,154-63.67,235.51-59q16.07.91,32.14,3.41c30,4.68,58.59,13.49,86.38,24.73,19.64,7.94,40.28,20.92,61.38,30.69,16,7.39,32.18,12.81,48.09,13.13,21.91.4,41.78-9.61,61.44-18.74,21.73-10.1,44.5-19.54,67.65-27.85,55-19.74,111.29-33.82,167.15-33.41a297.24,297.24,0,0,1,42.52,3.33,252.34,252.34,0,0,1,74.37,23.57c35.45,17.62,64.36,54.6,105.95,64.27a115,115,0,0,0,24.42,2.71c6.5.1,13-.18,19.4-.55,47.5-2.78,92.92-10.51,137.16-24.94q4.82-1.56,9.62-3.25c46.46-16.17,94.23-39.57,145.66-46.56a191.62,191.62,0,0,1,93.58,10.79c27.79,10.5,51.15,21.29,86.61,16.29"/><path class="cls-8" d="M47.09,697.39c49.36-9,87.7-40.22,125.79-69,31.53-23.83,62.74-45.75,95.6-62.45,41.63-21,90.87-31.29,135.68-15.93,26.33,9.07,48.69,26.3,69.52,44.06,21.9,18.59,42.71,39.1,63.69,59,29.43,27.85,60,54.62,94.9,74.29,30.3,17.11,66.27,27.73,101.72,22.75a150.86,150.86,0,0,0,30.23-7.71c19.23-6.92,37.62-17.23,56.18-26.88,73.39-38.22,154.76-65.32,236.76-60.62a314.86,314.86,0,0,1,32.34,3.53c30.16,4.9,58.79,14.16,86.58,25.83,19.72,8.28,40.37,21.43,61.54,31.37,16,7.51,32.3,13,48.33,13.52,22,.64,42.14-8.88,62-17.69,22-9.75,45-19,68.33-27.37,55.45-19.81,111.63-35,167.6-35.94a300.66,300.66,0,0,1,42.68,2.25,251.89,251.89,0,0,1,75.1,21.74c36,16.8,65.8,52.62,107.61,62.56a122.88,122.88,0,0,0,24.53,3c6.53.22,13,.08,19.48-.15,47.69-1.71,93.3-8,138-21.18q4.86-1.43,9.72-3c47-14.87,95.44-37.39,146.92-45.29a199.43,199.43,0,0,1,92.73,7.59c27.51,9,50.75,18.43,85.83,12.87"/><path class="cls-9" d="M48.26,691.51c49.76-9,87.8-41.37,125.75-70.65,31.65-24.42,63.08-46.39,96.17-62.89,42-20.76,91.51-30.48,136.76-15.24,26.53,9,49.27,25.9,70.53,43.34,22.38,18.27,43.7,38.42,65.16,57.91,30.12,27.28,61.36,53.4,96.86,72.46,30.77,16.59,67,26.77,102.67,21.75a157,157,0,0,0,30.46-7.67c19.36-6.87,37.93-17.12,56.66-26.8,74-38.3,155.54-67,238-62.19a300.51,300.51,0,0,1,32.54,3.66c30.35,5.1,59,14.83,86.8,26.92,19.79,8.62,40.45,21.95,61.68,32,16.06,7.63,32.43,13.21,48.57,13.91,22.15.89,42.51-8.14,62.67-16.64,22.29-9.4,45.54-18.54,69-26.89,55.9-19.87,112-36.17,168.06-38.47a307.5,307.5,0,0,1,42.84,1.18,251.45,251.45,0,0,1,75.82,19.92c36.58,16,67.24,50.63,109.28,60.84a131.47,131.47,0,0,0,24.62,3.33c6.56.34,13.1.33,19.57.25,47.87-.64,93.68-5.5,138.77-17.41q4.9-1.3,9.8-2.71c47.49-13.59,96.66-35.21,148.18-44a209.68,209.68,0,0,1,91.89,4.39c27.23,7.61,50.35,15.57,85.05,9.46"/><path class="cls-10" d="M49.42,685.63c50.17-8.86,87.9-42.52,125.72-72.28,31.77-25,63.38-47.1,96.74-63.33,42.41-20.63,92.15-29.67,137.84-14.55,26.73,8.89,49.85,25.49,71.54,42.63,22.86,17.95,44.7,37.72,66.63,56.81,30.8,26.7,62.76,52.17,98.83,70.63,31.23,16.06,67.68,25.81,103.6,20.74A162.31,162.31,0,0,0,781,718.64c19.51-6.81,38.26-17,57.15-26.71,74.51-38.39,156.33-68.62,239.26-63.76a288.21,288.21,0,0,1,32.75,3.79c30.54,5.31,59.2,15.49,87,28,19.86,8.95,40.53,22.45,61.83,32.71,16.1,7.74,32.55,13.4,48.81,14.29,22.27,1.14,42.87-7.4,63.29-15.58,22.56-9.06,46-18,69.67-26.41,56.35-19.93,112.31-37.35,168.53-41a311.47,311.47,0,0,1,43,.11,250.65,250.65,0,0,1,76.54,18.09c37.16,15.13,68.7,48.64,111,59.12a142.51,142.51,0,0,0,24.73,3.64c6.59.46,13.16.59,19.64.66,48.06.42,94.08-3,139.58-13.66q5-1.16,9.9-2.44c48-12.3,97.87-33,149.44-42.76,33.2-6.28,64.07-5,91,1.19s50,12.72,84.27,6"/><path class="cls-11" d="M50.59,679.75c50.56-8.77,88-43.67,125.67-73.92,31.9-25.6,63.72-47.74,97.31-63.76,42.84-20.43,92.8-28.86,138.93-13.87,26.93,8.81,50.43,25.09,72.56,41.92,23.33,17.63,45.68,37,68.09,55.71,31.49,26.13,64.17,50.94,100.79,68.81,31.7,15.53,68.39,24.84,104.55,19.73a168.79,168.79,0,0,0,30.91-7.61c19.66-6.74,38.58-16.87,57.65-26.62,75.06-38.47,157.1-70.28,240.5-65.33a279.11,279.11,0,0,1,33,3.91c30.73,5.52,59.41,16.17,87.22,29.12,19.94,9.29,40.61,23,62,33.38,16.15,7.86,32.68,13.6,49,14.68,22.39,1.39,43.24-6.66,63.91-14.53,22.84-8.7,46.56-17.53,70.35-25.92,56.79-20,112.65-38.53,169-43.53a317.29,317.29,0,0,1,43.14-1,251,251,0,0,1,77.27,16.26c37.72,14.31,70.14,46.66,112.61,57.41a154,154,0,0,0,24.84,4c6.62.58,13.21.85,19.72,1.06,48.25,1.49,94.46-.5,140.38-9.9q5-1,10-2.17c48.51-11,99.08-30.81,150.69-41.49,33-6.83,63.47-6.74,90.2-2s49.56,9.86,83.49,2.63"/><path class="cls-12" d="M51.75,673.87c51-8.68,88.08-44.83,125.64-75.55,32-26.19,64.06-48.39,97.88-64.2,43.25-20.21,93.44-28.05,140-13.18,27.13,8.72,51,24.69,73.57,41.2,23.81,17.32,46.67,36.36,69.56,54.61,32.17,25.56,65.58,49.72,102.75,67,32.16,15,69.1,23.88,105.49,18.73a173.81,173.81,0,0,0,31.14-7.58c19.81-6.68,38.91-16.74,58.14-26.53,75.62-38.56,157.88-71.93,241.75-66.9a268.69,268.69,0,0,1,33.15,4c30.93,5.73,59.61,16.83,87.44,30.22,20,9.62,40.69,23.47,62.13,34,16.19,8,32.8,13.8,49.29,15.06,22.51,1.64,43.6-5.92,64.52-13.47,23.12-8.36,47.07-17,71-25.44,57.23-20.07,113-39.71,169.45-46.07a323.58,323.58,0,0,1,43.3-2,251.1,251.1,0,0,1,78,14.44c38.29,13.47,71.58,44.67,114.27,55.69a167.54,167.54,0,0,0,25,4.26c6.64.7,13.26,1.11,19.8,1.46,48.43,2.56,94.84,2,141.19-6.13,3.36-.59,6.72-1.23,10.09-1.9,49-9.72,100.29-28.61,151.95-40.23,32.77-7.37,62.85-8.5,89.35-5.21s49.16,7,82.71-.78"/><path class="cls-13" d="M52.92,668c51.37-8.6,88.17-46,125.6-77.19,32.14-26.79,64.39-49,98.45-64.64,43.66-20,94.07-27.24,141.09-12.49,27.34,8.63,51.59,24.28,74.58,40.48,24.28,17,47.67,35.68,71,53.52,32.86,25,67,48.49,104.72,65.15,32.62,14.48,69.8,22.91,106.43,17.72A180.9,180.9,0,0,0,806.18,683c20-6.63,39.23-16.63,58.63-26.46,76.18-38.64,158.67-73.57,243-68.46a260,260,0,0,1,33.35,4.17c31.11,5.93,59.81,17.5,87.65,31.31,20.07,10,40.77,24,62.28,34.72,16.23,8.1,32.92,14,49.52,15.45,22.63,1.89,44-5.18,65.15-12.42,23.39-8,47.58-16.53,71.69-25,57.68-20.13,113.33-40.88,169.91-48.59a328.6,328.6,0,0,1,43.46-3.11,251.26,251.26,0,0,1,78.72,12.6c38.86,12.65,73,42.69,115.93,54a184.59,184.59,0,0,0,25.06,4.58c6.67.81,13.31,1.35,19.88,1.85,48.61,3.63,95.23,4.52,142-2.37q5.09-.75,10.19-1.63c49.52-8.43,101.5-26.39,153.21-39,32.55-7.91,62.22-10.26,88.5-8.41,26.07,1.84,48.76,4.15,81.93-4.2"/><path class="cls-14" d="M54.09,662.12c51.77-8.51,88.25-47.16,125.56-78.82,32.26-27.39,64.73-49.69,99-65.08,44.07-19.79,94.71-26.43,142.17-11.81,27.54,8.55,52.17,23.89,75.6,39.78,24.75,16.68,48.65,35,72.49,52.41,33.54,24.41,68.39,47.27,106.68,63.32,33.09,14,70.51,22,107.37,16.71a186.37,186.37,0,0,0,31.59-7.5c20.1-6.57,39.55-16.5,59.13-26.37,76.73-38.72,159.44-75.22,244.25-70A252.81,252.81,0,0,1,1151.5,579c31.3,6.14,60,18.18,87.86,32.42,20.15,10.29,40.86,24.49,62.43,35.39,16.28,8.21,33,14.2,49.77,15.83,22.75,2.14,44.33-4.44,65.76-11.36,23.67-7.66,48.1-16,72.37-24.48,58.12-20.19,113.67-42.06,170.37-51.13a337.24,337.24,0,0,1,43.62-4.18,251.89,251.89,0,0,1,79.44,10.78c39.43,11.81,74.46,40.7,117.59,52.26a205.31,205.31,0,0,0,25.17,4.89c6.69.92,13.36,1.61,19.95,2.25,48.81,4.7,95.62,7,142.8,1.39q5.13-.62,10.29-1.36c50-7.14,102.71-24.16,154.46-37.69,32.34-8.44,61.61-12,87.66-11.61,25.78.41,48.36,1.29,81.15-7.61"/><path class="cls-15" d="M55.25,656.24c52.18-8.42,88.34-48.33,125.52-80.46,32.38-28,65.07-50.33,99.59-65.51,44.5-19.58,95.36-25.62,143.26-11.12,27.74,8.46,52.75,23.48,76.61,39.06,25.23,16.36,49.64,34.31,74,51.32,34.23,23.83,69.8,46,108.64,61.49,33.56,13.43,71.22,21,108.32,15.7A193.19,193.19,0,0,0,823,659.25c20.25-6.5,39.88-16.38,59.62-26.28,77.29-38.81,160.22-76.87,245.5-71.6a248.59,248.59,0,0,1,33.76,4.42c31.49,6.35,60.21,18.85,88.07,33.51,20.22,10.64,40.93,25,62.58,36.06,16.32,8.33,33.17,14.4,50,16.22,22.87,2.39,44.7-3.7,66.38-10.31,24-7.31,48.61-15.53,73.05-24,58.56-20.26,114-43.24,170.83-53.66a344.12,344.12,0,0,1,43.77-5.26,252.14,252.14,0,0,1,80.17,9c40,11,75.9,38.7,119.25,50.54a228.33,228.33,0,0,0,25.28,5.2c6.72,1,13.41,1.87,20,2.66,49,5.76,96,9.52,143.61,5.15,3.45-.32,6.91-.68,10.38-1.1,50.54-5.85,103.92-21.93,155.72-36.42,32.12-9,61-13.78,86.81-14.81,25.48-1,48-1.56,80.37-11"/><path class="cls-16" d="M56.42,650.36C109,642,144.84,600.87,181.9,568.27c32.5-28.59,65.41-51,100.16-65.95,44.91-19.36,96-24.81,144.34-10.43,27.94,8.37,53.33,23.07,77.62,38.34,25.71,16,50.64,33.63,75.43,50.22,34.91,23.26,71.21,44.81,110.61,59.67,34,12.9,71.92,20,109.25,14.69a200.48,200.48,0,0,0,32-7.44c20.4-6.44,40.2-16.26,60.11-26.19,77.85-38.9,161-78.52,246.75-73.17a242.59,242.59,0,0,1,34,4.54c31.68,6.56,60.42,19.53,88.29,34.61,20.29,11,41,25.52,62.73,36.74,16.36,8.45,33.29,14.6,50.24,16.61,23,2.63,45.06-3,67-9.26,24.22-7,49.12-15,73.71-23.52,59-20.32,114.35-44.41,171.3-56.18a347.91,347.91,0,0,1,43.93-6.33,252.8,252.8,0,0,1,80.89,7.12c40.57,10.13,77.34,36.72,120.92,48.83a255,255,0,0,0,25.38,5.51c6.74,1.16,13.46,2.12,20.11,3.06,49.17,6.83,96.38,12,144.41,8.91q5.22-.35,10.48-.82c51.05-4.56,105.14-19.71,157-35.15,31.91-9.51,60.36-15.53,86-18,25.18-2.44,47.57-4.42,79.59-14.44"/><path class="cls-17" d="M57.58,644.48c53-8.25,88.51-50.66,125.45-83.72,32.61-29.19,65.74-51.62,100.73-66.39,45.33-19.15,96.64-24,145.42-9.75,28.14,8.29,53.91,22.68,78.63,37.63,26.19,15.74,51.63,33,76.9,49.12,35.6,22.69,72.62,43.59,112.57,57.84,34.48,12.38,72.63,19.07,110.2,13.69a209.15,209.15,0,0,0,32.26-7.4c20.55-6.39,40.53-16.14,60.61-26.11,78.4-39,161.78-80.17,248-74.74a236.25,236.25,0,0,1,34.16,4.67c31.86,6.77,60.61,20.2,88.5,35.71,20.35,11.32,41.09,26,62.87,37.4,16.42,8.57,33.42,14.8,50.48,17,23.11,2.88,45.43-2.23,67.62-8.21,24.51-6.61,49.63-14.53,74.39-23,59.45-20.39,114.69-45.59,171.75-58.72a357.73,357.73,0,0,1,44.09-7.4,253.4,253.4,0,0,1,81.62,5.3c41.14,9.29,78.78,34.73,122.58,47.11,8.53,2.41,17.06,4.23,25.49,5.82,6.77,1.28,13.51,2.38,20.19,3.46,49.36,7.9,96.77,14.53,145.21,12.67,3.51-.13,7-.32,10.57-.55,51.57-3.27,106.36-17.46,158.24-33.88,31.69-10,59.74-17.28,85.12-21.22,24.88-3.86,47.17-7.28,78.81-17.85"/><path class="cls-18" d="M58.75,638.61c53.39-8.17,88.59-51.84,125.4-85.37,32.73-29.79,66.09-52.25,101.3-66.83,45.75-18.92,97.29-23.18,146.5-9.05,28.36,8.2,54.49,22.27,79.66,36.92,26.66,15.41,52.61,32.25,78.36,48,36.28,22.12,74,42.36,114.53,56,35,11.85,73.34,18.1,111.14,12.68a218.67,218.67,0,0,0,32.5-7.37c20.68-6.32,40.84-16,61.09-26,79-39.07,162.56-81.82,249.25-76.31a229.89,229.89,0,0,1,34.36,4.8c32.06,7,60.81,20.88,88.71,36.8,20.43,11.66,41.18,26.54,63,38.08,16.46,8.68,33.54,15,50.72,17.38,23.23,3.13,45.79-1.49,68.23-7.15,24.79-6.26,50.15-14,75.07-22.55,59.89-20.46,115-46.77,172.21-61.25a365.74,365.74,0,0,1,44.25-8.48,254.34,254.34,0,0,1,82.33,3.48c41.72,8.45,80.23,32.74,124.25,45.39,8.57,2.46,17.14,4.4,25.6,6.13,6.8,1.4,13.56,2.64,20.27,3.86,49.54,9,97.15,17,146,16.44,3.55-.05,7.1-.14,10.67-.29,52.07-2,107.58-15.21,159.5-32.61,31.47-10.55,59.11-19,84.27-24.42,24.58-5.27,46.77-10.13,78-21.27"/><path class="cls-19" d="M59.92,632.73c53.79-8.08,88.66-53,125.36-87,32.84-30.4,66.43-52.9,101.87-67.27a227.83,227.83,0,0,1,147.58-8.37c28.56,8.12,55.07,21.87,80.67,36.21,27.14,15.1,53.6,31.57,79.83,46.92,37,21.55,75.43,41.14,116.5,54.18,35.41,11.33,74,17.14,112.08,11.67a224.53,224.53,0,0,0,32.72-7.33c20.83-6.26,41.16-15.89,61.58-25.93,79.52-39.15,163.35-83.48,250.5-77.88a225.23,225.23,0,0,1,34.56,4.92c32.25,7.19,61,21.56,88.93,37.91,20.5,12,41.25,27,63.17,38.75,16.51,8.79,33.67,15.19,51,17.76,23.35,3.38,46.16-.75,68.85-6.1,25.07-5.91,50.67-13.53,75.74-22.07,60.35-20.51,115.37-47.94,172.68-63.77a371.82,371.82,0,0,1,44.4-9.55,255.27,255.27,0,0,1,83.06,1.64c42.29,7.61,81.68,30.76,125.91,43.68,8.62,2.51,17.22,4.56,25.71,6.44,6.82,1.52,13.61,2.9,20.34,4.27,49.73,10,97.54,19.53,146.83,20.19,3.57,0,7.16,0,10.76,0,52.58-.7,108.8-13,160.75-31.35,31.27-11.07,58.49-20.75,83.43-27.62,24.29-6.68,46.37-13,77.25-24.68"/><path class="cls-20" d="M61.08,626.85c54.2-8,88.74-54.19,125.33-88.63,32.94-31,66.76-53.54,102.44-67.71a233.29,233.29,0,0,1,148.66-7.68c28.76,8,55.65,21.47,81.68,35.49,27.62,14.78,54.6,30.89,81.3,45.83,37.65,21,76.84,39.91,118.46,52.35,35.88,10.8,74.74,16.17,113,10.66a234.88,234.88,0,0,0,32.95-7.29c21-6.21,41.49-15.78,62.08-25.86,80.07-39.23,164.12-85.12,251.74-79.44a220,220,0,0,1,34.77,5.05c32.43,7.39,61.21,22.24,89.14,39C1323.21,551,1344,566.18,1366,578c16.55,8.92,33.79,15.4,51.2,18.15,23.47,3.63,46.52,0,69.47-5a726.45,726.45,0,0,0,76.41-21.59c60.79-20.58,115.71-49.12,173.14-66.31a380.2,380.2,0,0,1,44.56-10.62,256.32,256.32,0,0,1,83.78-.18c42.86,6.76,83.12,28.77,127.57,42,8.66,2.57,17.3,4.73,25.82,6.75,6.85,1.64,13.66,3.15,20.42,4.67,49.92,11.1,97.93,22,147.63,23.95q5.4.21,10.86.26c53.09.6,110-10.7,162-30.08,31.06-11.58,57.87-22.49,82.58-30.82,24-8.09,46-15.84,76.47-28.09"/><path class="cls-21" d="M62.25,621c54.6-7.9,88.81-55.37,125.29-90.27,33.05-31.62,67.1-54.18,103-68.14,47-18.27,99.21-20.75,149.74-7,29,7.94,56.23,21.06,82.7,34.77,28.09,14.47,55.58,30.21,82.76,44.73,38.34,20.4,78.25,38.69,120.42,50.53,36.35,10.27,75.45,15.21,114,9.65A244.32,244.32,0,0,0,873.31,588c21.13-6.15,41.81-15.66,62.57-25.77,80.63-39.32,164.9-86.77,253-81a215.17,215.17,0,0,1,35,5.18c32.63,7.6,61.41,22.91,89.35,40.09,20.64,12.69,41.42,28.08,63.48,40.1,16.59,9,33.91,15.59,51.43,18.53,23.59,3.88,46.89.73,70.09-4a646.07,646.07,0,0,0,77.09-21.1c61.23-20.65,116-50.3,173.59-68.84a388.83,388.83,0,0,1,44.72-11.7,257.86,257.86,0,0,1,84.51-2c43.43,5.92,84.56,26.79,129.23,40.25,8.71,2.62,17.38,4.89,25.93,7.06,6.87,1.76,13.71,3.41,20.5,5.07,50.1,12.17,98.31,24.54,148.43,27.71q5.46.35,11,.53c53.6,1.89,111.25-8.43,163.26-28.81,30.86-12.09,57.26-24.21,81.74-34,23.7-9.49,45.58-18.7,75.69-31.51"/><path class="cls-22" d="M63.41,615.09c55-7.81,88.89-56.54,125.25-91.9,33.16-32.23,67.47-54.75,103.58-68.58,47.46-18,99.85-19.94,150.83-6.31,29.16,7.86,56.81,20.66,83.71,34.06C555.35,496.51,583.35,511.89,611,526c39,19.83,79.66,37.46,122.39,48.7,36.8,9.74,76.15,14.25,114.9,8.65a254.1,254.1,0,0,0,33.4-7.23c21.27-6.08,42.13-15.53,63.06-25.68C1026,511,1110.45,462,1199,467.85a211.73,211.73,0,0,1,35.17,5.3c32.81,7.81,61.6,23.6,89.56,41.2,20.7,13,41.5,28.58,63.62,40.76,16.64,9.15,34,15.8,51.68,18.92,23.71,4.13,47.25,1.47,70.7-2.93a586.48,586.48,0,0,0,77.76-20.63c61.68-20.71,116.39-51.47,174.06-71.37a398,398,0,0,1,44.87-12.76,259.29,259.29,0,0,1,85.24-3.84c44,5.07,86,24.8,130.9,38.53,8.74,2.67,17.45,5.06,26,7.38,6.9,1.87,13.76,3.66,20.58,5.46,50.28,13.24,98.69,27,149.24,31.48,3.66.32,7.35.59,11,.79A382.15,382.15,0,0,0,2394,518.6c30.65-12.59,56.65-25.94,80.89-37.22,23.41-10.89,45.18-21.56,74.91-34.92"/><path class="cls-23" d="M64.58,609.22c55.41-7.73,89-57.73,125.21-93.54,33.26-32.85,67.81-55.4,104.15-69,47.87-17.75,100.49-19.13,151.91-5.62,29.37,7.77,57.39,20.26,84.72,33.35,29,13.83,57.57,28.84,85.7,42.53,39.71,19.25,81.06,36.23,124.35,46.87,37.27,9.21,76.86,13.28,115.85,7.64a264.66,264.66,0,0,0,33.62-7.2c21.42-6,42.46-15.41,63.56-25.59,81.73-39.49,166.46-90.07,255.49-84.15a207.44,207.44,0,0,1,35.37,5.43c33,8,61.8,24.27,89.78,42.29,20.76,13.38,41.57,29.1,63.77,41.44,16.68,9.26,34.16,16,51.92,19.3,23.82,4.38,47.61,2.21,71.32-1.87a538.63,538.63,0,0,0,78.43-20.15c62.12-20.77,116.73-52.65,174.52-73.9a404.91,404.91,0,0,1,45-13.84,260.81,260.81,0,0,1,86-5.66c44.57,4.22,87.44,22.81,132.56,36.8,8.79,2.73,17.53,5.23,26.14,7.7,6.93,2,13.82,3.92,20.66,5.86,50.47,14.31,99.08,29.55,150,35.24q5.54.61,11.15,1.07c54.62,4.46,113.71-3.89,165.77-26.28,30.45-13.09,56-27.66,80.05-40.42,23.13-12.29,44.78-24.41,74.13-38.34"/><path class="cls-24" d="M65.75,603.34c55.81-7.65,89-58.91,125.17-95.18,33.36-33.46,68.14-56,104.72-69.45,48.28-17.53,101.13-18.32,153-4.93,29.57,7.68,58,19.85,85.73,32.63,29.53,13.51,58.56,28.16,87.17,41.43,40.39,18.68,82.47,35,126.31,45,37.74,8.69,77.57,12.32,116.79,6.64a277.87,277.87,0,0,0,33.85-7.16c21.57-6,42.78-15.29,64-25.51,82.29-39.58,167.24-91.72,256.74-85.72a204.35,204.35,0,0,1,35.58,5.56c33.19,8.22,62,24.95,90,43.39,20.84,13.72,41.66,29.6,63.93,42.1a176,176,0,0,0,52.15,19.69c23.95,4.63,48,3,71.94-.82A497.89,497.89,0,0,0,1612,531.39c62.56-20.84,117.07-53.83,175-76.43A413.92,413.92,0,0,1,1832.12,440a262.8,262.8,0,0,1,86.69-7.49c45.14,3.37,88.88,20.83,134.22,35.09,8.83,2.79,17.61,5.4,26.25,8,6.95,2.11,13.87,4.17,20.73,6.27,50.66,15.37,99.47,32.05,150.85,39q5.59.76,11.24,1.34c55.13,5.76,115-1.6,167-25,30.25-13.59,55.43-29.38,79.2-43.62,22.85-13.69,44.38-27.27,73.35-41.75"/><path class="cls-25" d="M66.91,597.46c56.22-7.56,89.09-60.1,125.14-96.81,33.45-34.08,68.48-56.68,105.29-69.89,48.7-17.32,101.77-17.51,154.07-4.25C481.18,434.1,510,446,538.16,458.43c30,13.2,59.54,27.47,88.63,40.34,41.08,18.1,83.88,33.78,128.28,43.21,38.2,8.16,78.27,11.36,117.73,5.62a289.9,289.9,0,0,0,34.07-7.12c21.72-5.9,43.11-15.17,64.54-25.42,82.85-39.66,168-93.37,258-87.28a200.56,200.56,0,0,1,35.77,5.67c33.38,8.44,62.19,25.64,90.2,44.49,20.9,14.07,41.74,30.12,64.07,42.78a180.24,180.24,0,0,0,52.4,20.08c24.06,4.87,48.34,3.68,72.55.23a463.88,463.88,0,0,0,79.78-19.19c63-20.9,117.41-55,175.45-79a423.11,423.11,0,0,1,45.34-16,264,264,0,0,1,87.4-9.32c45.72,2.52,90.33,18.84,135.89,33.37,8.88,2.84,17.69,5.56,26.36,8.32,7,2.23,13.92,4.43,20.81,6.67,50.84,16.44,99.85,34.56,151.65,42.76q5.64.89,11.34,1.6c55.64,7.05,116.2.69,168.3-23.74,30.05-14.09,54.83-31.1,78.35-46.82,22.57-15.08,44-30.12,72.57-45.16"/><path class="cls-26" d="M68.08,591.58c56.62-7.47,89.16-61.28,125.09-98.44C226.73,458.44,262,435.82,299,422.81c49.12-17.1,102.42-16.7,155.16-3.56,30,7.5,59.13,19.05,87.76,31.2,30.48,12.89,60.54,26.79,90.1,39.24,41.76,17.53,85.29,32.56,130.24,41.39,38.66,7.63,79,10.39,118.67,4.61a300.3,300.3,0,0,0,34.3-7.09c21.86-5.84,43.43-15.05,65-25.33,83.4-39.75,168.8-95,259.24-88.85a196.9,196.9,0,0,1,36,5.8c33.57,8.64,62.39,26.32,90.42,45.59,21,14.41,41.82,30.62,64.22,43.44a183.62,183.62,0,0,0,52.63,20.47c24.19,5.12,48.71,4.43,73.18,1.28a435.24,435.24,0,0,0,80.45-18.7c63.45-21,117.75-56.18,175.9-81.49a432.54,432.54,0,0,1,45.5-17.06,266.33,266.33,0,0,1,88.13-11.14c46.29,1.66,91.77,16.85,137.55,31.65,8.93,2.89,17.77,5.73,26.47,8.63,7,2.35,14,4.69,20.89,7.07,51,17.51,100.24,37.06,152.46,46.52,3.78.69,7.6,1.31,11.43,1.88,56.15,8.33,117.45,3,169.55-22.48,29.86-14.58,54.24-32.82,77.51-50,22.3-16.48,43.59-33,71.79-48.58"/><path class="cls-27" d="M69.25,585.7c57-7.38,89.21-62.46,125.05-100.07,33.65-35.32,69.16-58,106.43-70.77C350.26,398,403.79,399,457,412c30.17,7.41,59.71,18.64,88.77,30.49,31,12.56,61.53,26.1,91.57,38.13,42.45,17,86.69,31.33,132.2,39.56,39.13,7.11,79.69,9.43,119.62,3.61a313.82,313.82,0,0,0,34.52-7.06c22-5.78,43.75-14.92,65.53-25.24,84-39.84,169.58-96.67,260.49-90.42a194.64,194.64,0,0,1,36.18,5.92c33.76,8.85,62.54,27.06,90.62,46.69,21,14.8,41.9,31.14,64.37,44.12a187.72,187.72,0,0,0,52.88,20.85c24.31,5.37,49.07,5.17,73.79,2.34a411.53,411.53,0,0,0,81.13-18.22c63.89-21,118.09-57.36,176.36-84a442,442,0,0,1,45.66-18.13,267.07,267.07,0,0,1,88.85-13c46.86.72,93.21,14.87,139.21,29.94,9,2.94,17.85,5.89,26.58,8.94q10.54,3.71,21,7.47c51.21,18.58,100.62,39.57,153.26,50.28q5.73,1.17,11.53,2.15c56.66,9.62,118.7,5.28,170.81-21.2,29.66-15.08,53.64-34.55,76.66-53.23,22-17.87,43.19-35.84,71-52"/><path class="cls-28" d="M70.41,579.83c57.43-7.3,89.28-63.66,125-101.72,33.74-35.93,69.49-58.6,107-71.2,49.95-16.68,103.7-15.08,157.32-2.19C490.12,412.05,520,423,549.54,434.5c31.43,12.25,62.51,25.42,93,37,43.13,16.38,88.1,30.1,134.17,37.73,39.59,6.58,80.39,8.46,120.55,2.6a331.12,331.12,0,0,0,34.76-7c22.15-5.72,44.07-14.81,66-25.17,84.52-39.91,170.37-98.32,261.74-92a191.38,191.38,0,0,1,36.38,6.05c34,9.06,62.75,27.73,90.84,47.78,21.07,15.14,42,31.65,64.52,44.79a191.18,191.18,0,0,0,53.11,21.24c24.43,5.62,49.44,5.91,74.41,3.39a390,390,0,0,0,81.8-17.74c64.35-21.09,118.43-58.52,176.83-86.55a449.13,449.13,0,0,1,45.81-19.2,269.13,269.13,0,0,1,89.58-14.8c47.42-.12,94.65,12.88,140.87,28.22,9,3,17.93,6.05,26.69,9.25q10.58,3.87,21,7.87c51.41,19.65,101,42.07,154.07,54.05q5.77,1.29,11.63,2.41c57.17,10.92,120,7.59,172.06-19.93,29.48-15.57,53-36.27,75.82-56.43,21.76-19.27,42.79-38.69,70.23-55.4"/><path class="cls-29" d="M71.58,574c57.83-7.21,89.34-64.85,125-103.35C230.39,434,266.39,411.35,304.13,399c50.36-16.46,104.34-14.27,158.4-1.5,30.58,7.24,60.86,17.84,90.8,29.06,31.91,11.93,63.51,24.74,94.5,35.94,43.82,15.81,89.51,28.88,136.13,35.9,40.06,6.06,81.1,7.51,121.5,1.6a347.38,347.38,0,0,0,35-7c22.3-5.66,44.39-14.68,66.51-25.08,85.07-40,171.14-100,263-93.55a189.31,189.31,0,0,1,36.59,6.18c34.14,9.26,62.94,28.4,91,48.88,21.14,15.48,42.06,32.16,64.67,45.46a194.91,194.91,0,0,0,53.35,21.62c24.55,5.87,49.8,6.65,75,4.45a371.37,371.37,0,0,0,82.48-17.26c64.79-21.16,118.77-59.7,177.29-89.08a458.81,458.81,0,0,1,46-20.28,271.73,271.73,0,0,1,90.3-16.63c48-.95,96.1,10.9,142.54,26.51q13.57,4.57,26.79,9.56,10.62,4,21.12,8.28c51.59,20.71,101.39,44.57,154.88,57.8q5.8,1.44,11.72,2.68c57.68,12.21,121.22,9.9,173.32-18.66,29.28-16.06,52.46-38,75-59.63,21.5-20.67,42.39-41.55,69.45-58.82"/><path class="cls-30" d="M72.74,568.07C131,561,162.09,502,197.68,463.09c33.88-37.23,70.17-59.9,108.14-72.08,50.78-16.25,105-13.46,159.49-.81,30.78,7.15,61.44,17.43,91.81,28.34,32.39,11.62,64.5,24.06,96,34.85C697.59,468.63,744,481,791.18,487.46c40.53,5.53,81.81,6.54,122.44.59q17.73-2.61,35.21-7c22.44-5.6,44.72-14.56,67-25C1101.46,416,1187.75,354.48,1280.07,361a187.13,187.13,0,0,1,36.78,6.3c34.33,9.48,63.14,29.08,91.26,50,21.22,15.82,42.14,32.67,64.82,46.13a198.65,198.65,0,0,0,53.59,22c24.67,6.12,50.17,7.39,75.65,5.5a355.65,355.65,0,0,0,83.15-16.77c65.23-21.23,119.11-60.88,177.74-91.62a471.88,471.88,0,0,1,46.13-21.35,274.75,274.75,0,0,1,91-18.45c48.55-1.8,97.54,8.91,144.2,24.79q13.65,4.65,26.9,9.88,10.66,4.22,21.2,8.67c51.77,21.78,101.78,47.08,155.68,61.56q5.87,1.58,11.82,3c58.18,13.49,122.49,12.21,174.58-17.4,29.1-16.54,51.92-39.67,74.12-62.83,21.28-22,42-44.4,68.67-62.23"/><path class="cls-31" d="M73.91,562.19c58.64-7,89.43-67.25,124.9-106.62,34-37.82,70.51-60.53,108.71-72.51,51.2-16,105.62-12.65,160.56-.13,31,7.07,62,17,92.83,27.64,32.87,11.29,65.49,23.37,97.44,33.74,45.19,14.67,92.32,26.43,140.06,32.25,41,5,82.51,5.57,123.38-.43q17.82-2.61,35.43-6.91c22.59-5.55,45-14.45,67.49-24.91,86.19-40.17,172.71-103.27,265.49-96.69a184.7,184.7,0,0,1,37,6.43c34.51,9.68,63.34,29.75,91.47,51.08,21.28,16.15,42.22,33.18,65,46.8a202.93,202.93,0,0,0,53.83,22.39c24.79,6.37,50.53,8.13,76.26,6.56a340.59,340.59,0,0,0,83.83-16.3c65.67-21.29,119.45-62.05,178.2-94.14A475.87,475.87,0,0,1,1922,348a277.07,277.07,0,0,1,91.75-20.28c49.12-2.64,99,6.92,145.86,23.07q13.71,4.72,27,10.19,10.7,4.39,21.28,9.07c52,22.85,102.16,49.58,156.48,65.33q5.91,1.71,11.92,3.22c58.69,14.78,123.81,14.61,175.83-16.13,28.95-17,51.32-41.41,73.28-66,21-23.44,41.6-47.26,67.89-65.65"/><path class="cls-32" d="M75.08,556.31c59-6.94,89.5-68.41,124.86-108.25C333.15,298,506.72,387,663.61,435.23c96.7,29.71,202.21,46.16,302,22.11,121.41-29.26,239.51-154.26,371.91-116.52,61,17.39,103.91,67.7,156.81,99.64,64.74,39.1,145.08,37.31,215.44,14.58,83-26.81,146.4-86,225.11-120.17,85.12-37,183.74-25.8,267.11,9.75,59.9,25.53,116.48,59.25,178.65,78.56s133.51,22.5,189.11-11.37c56.15-34.2,86.47-99.48,139.54-138.29"/><path class="cls-33" d="M72.66,545.83c62.09-8.63,98.21-69.24,135.67-106,62-60.81,125.93-80.87,196-76.74,73.55,4.33,150.49,32.38,224.87,56.36,13.53,4.36,27,8.59,40.28,12.53,96.4,28.46,201.2,43.57,300.4,19.27,120.87-29.64,238.45-152.3,369.92-117.24,60.64,16.15,103.73,64.2,156.55,94.59A208.34,208.34,0,0,0,1546,449.14c53.32,14.47,111.82,9.12,164.82-7.7,82.66-26.25,146.35-83.58,224.87-116.59,50.83-21.38,106.34-26,160.55-18.77a417.63,417.63,0,0,1,105.46,29c59.73,25,116.26,58,178.2,76.87S2512.64,434,2568.23,401c19.77-11.74,36.43-27.25,52-44.1,28.71-31,54-66.68,87.48-92.17"/><path class="cls-34" d="M70.25,535.34C135.38,525,176.81,465.58,216.72,431.7c64.21-54.52,124.94-75.4,194.58-70.53,73.11,5.1,149.76,32.56,223.86,55.64,13.47,4.19,26.87,8.25,40.14,12,96.1,27.21,200.18,41,298.79,16.44,120.34-30,237.39-150.34,367.93-117.95,60.26,14.89,103.56,60.69,156.29,89.53a211.31,211.31,0,0,0,49.48,19.37c53.09,13.56,111.21,8.1,164-8.37,82.3-25.68,146.3-81.19,224.63-113,50.69-20.61,105.91-24.94,159.87-17.79a425.06,425.06,0,0,1,105,28.46c59.56,24.48,116,56.69,177.75,75.16s132,21.62,187.62-10.52c19.74-11.44,36.49-26.55,52.23-43,28.93-30.26,54.69-65.41,87.27-91.25"/><path class="cls-35" d="M67.84,524.86c68.17-12,114.53-70,157.27-101.34,65.87-48.27,124-69.93,193.19-64.32,72.67,5.87,149,32.74,222.84,54.91,13.43,4,26.78,7.91,40,11.5,95.81,26,199.17,38.42,297.19,13.61,119.8-30.39,236.33-148.38,365.94-118.66,59.87,13.64,103.38,57.17,156,84.47a215.19,215.19,0,0,0,49.31,18.25c52.86,12.66,110.59,7.07,163.21-9,82-25.12,146.26-78.8,224.4-109.45C1987.77,285,2042.7,280.9,2096.4,288A432.88,432.88,0,0,1,2201,315.92c59.39,23.95,115.82,55.41,177.29,73.47s131.3,21.18,186.88-10.11c19.73-11.12,36.57-25.84,52.42-41.9,29.16-29.52,55.39-64.13,87.06-90.32"/><path class="cls-36" d="M65.42,514.37c71.22-13.67,117.67-78.81,168.08-99,58.3-53.52,123-64.46,191.79-58.12,72.24,6.65,148.29,32.94,221.84,54.19,13.38,3.86,26.68,7.58,39.86,11,95.5,24.71,198.15,35.83,295.59,10.77,119.26-30.77,235.26-146.42,363.94-119.38,59.48,12.4,103.2,53.67,155.77,79.42a219.61,219.61,0,0,0,49.15,17.13c52.62,11.76,110,6,162.4-9.71,81.6-24.56,146.21-76.41,224.16-105.87,50.42-19.08,105-22.86,158.49-15.84a441.81,441.81,0,0,1,104.22,27.43c59.23,23.42,115.59,54.13,176.84,71.77s130.57,20.73,186.13-9.69c19.72-10.81,36.64-25.13,52.62-40.8,29.38-28.8,56.08-62.86,86.85-89.39"/><path class="cls-37" d="M63,503.88c74.26-15.35,124.71-81.4,178.88-96.72,58-50.16,122-59,190.4-51.91,71.8,7.42,147.55,33.12,220.82,53.46,13.34,3.7,26.59,7.24,39.73,10.49,95.2,23.47,197.14,33.25,294,7.94,118.72-31.14,234.2-144.45,362-120.09,59.08,11.15,103,50.16,155.5,74.36a224.85,224.85,0,0,0,49,16c52.39,10.86,109.36,5,161.6-10.38,81.24-24,146.17-74,223.92-102.3,50.28-18.31,104.62-21.81,157.8-14.86a450.55,450.55,0,0,1,103.81,26.91c59.06,22.9,115.37,52.85,176.39,70.08s129.83,20.28,185.39-9.27c19.7-10.51,36.71-24.43,52.81-39.7,29.6-28.07,56.76-61.59,86.64-88.47"/><path class="cls-38" d="M60.6,493.4c77.3-17,131.75-84,189.68-94.42,57.73-46.79,121-53.53,189-45.7,71.36,8.19,146.81,33.3,219.81,52.74,13.29,3.53,26.49,6.9,39.58,10,94.9,22.23,196.13,30.67,292.38,5.11,118.19-31.52,233.13-142.49,360-120.8,58.7,9.89,102.84,46.65,155.24,69.3a230.54,230.54,0,0,0,48.81,14.88c52.16,10,108.74,4,160.79-11,80.9-23.43,146.13-71.62,223.69-98.72,50.15-17.55,104.19-20.78,157.11-13.89a461.22,461.22,0,0,1,103.4,26.39C2259,309.6,2315.22,338.8,2376,355.61s129.1,19.84,184.65-8.85c19.69-10.2,36.78-23.73,53-38.6,29.82-27.35,57.45-60.32,86.42-87.55"/><path class="cls-39" d="M58.18,482.91C138.53,464.2,197,396.31,258.67,390.8c57.44-43.43,120-48.06,187.61-39.49,70.94,9,146.08,33.48,218.8,52,13.25,3.37,26.4,6.56,39.45,9.47,94.6,21,195.11,28.09,290.77,2.27,117.65-31.9,232.07-140.53,358-121.51,58.31,8.64,102.66,43.14,155,64.24a237.56,237.56,0,0,0,48.64,13.76c51.93,9.07,108.13,3,160-11.71,80.54-22.86,146.08-69.23,223.45-95.15,50-16.78,103.76-19.73,156.43-12.91a471.46,471.46,0,0,1,103,25.88c58.73,21.84,114.93,50.29,175.48,66.68s128.36,19.4,183.91-8.42c19.66-9.89,36.85-23,53.19-37.5,30.05-26.62,58.14-59,86.22-86.63"/><path class="cls-40" d="M55.77,472.43c83.39-20.4,145.83-89.21,211.29-89.81,57.16-40.06,119-42.59,186.22-33.28,70.5,9.74,145.34,33.67,217.79,51.28,13.19,3.2,26.3,6.23,39.3,9,94.31,19.73,194.1,25.51,289.17-.56,117.12-32.27,231-138.57,356-122.23,57.92,7.4,102.49,39.64,154.72,59.19a245.68,245.68,0,0,0,48.47,12.64c51.7,8.16,107.52,1.95,159.19-12.38,80.19-22.3,146-66.84,223.21-91.57,49.87-16,103.33-18.7,155.74-11.95a483.1,483.1,0,0,1,102.57,25.37c58.56,21.32,114.71,49,175,65s127.64,19,183.17-8c19.65-9.57,36.92-22.31,53.39-36.39,30.27-25.9,58.83-57.77,86-85.71"/><path class="cls-41" d="M53.36,461.94c86.43-22.07,152.87-91.8,222.09-87.5,56.87-36.7,118-37.12,184.83-27.08,70.06,10.52,144.6,33.86,216.78,50.56,13.14,3,26.21,5.89,39.16,8.45,94,18.48,193.08,22.93,287.56-3.39,116.58-32.65,230-136.61,354-122.94,57.54,6.14,102.31,36.13,154.46,54.13a254.91,254.91,0,0,0,48.3,11.52c51.47,7.26,106.9.93,158.38-13.05,79.84-21.74,146-64.45,223-88,49.74-15.25,102.9-17.65,155-11a495.31,495.31,0,0,1,102.16,24.86c58.39,20.79,114.49,47.73,174.57,63.29s126.9,18.51,182.43-7.59c19.63-9.27,37-21.61,53.58-35.3,30.49-25.16,59.52-56.49,85.79-84.78"/><path class="cls-42" d="M50.94,451.45c89.48-23.75,159.92-94.4,232.9-85.19,56.59-33.33,117-31.66,183.43-20.87,69.63,11.29,143.87,34,215.77,49.84,13.1,2.87,26.12,5.55,39,7.93C815.77,420.4,914.13,423.52,1008,397c116-33,228.89-134.66,352-123.66,57.15,4.89,102.14,32.61,154.2,49.07a266.52,266.52,0,0,0,48.13,10.4c51.24,6.36,106.29-.1,157.58-13.72,79.49-21.17,145.94-62.06,222.74-84.43,49.6-14.48,102.47-16.61,154.36-10A508.6,508.6,0,0,1,2198.79,249c58.23,20.27,114.27,46.46,174.12,61.6s126.16,18.07,181.68-7.17c19.62-9,37.06-20.9,53.77-34.2,30.72-24.44,60.21-55.22,85.58-83.86"/><path class="cls-43" d="M48.53,441c92.52-25.43,167-97,243.7-82.89,56.3-30,116-26.19,182-14.66C543.46,355.48,617.4,377.64,689,392.53c13.05,2.7,26,5.21,38.88,7.43,93.4,16,191.05,17.77,284.36-9,115.5-33.41,227.82-132.7,350-124.38,56.76,3.65,102,29.11,153.94,44a279.37,279.37,0,0,0,48,9.28c51,5.46,105.68-1.13,156.78-14.39,79.13-20.61,145.89-59.67,222.5-80.85,49.46-13.72,102-15.57,153.67-9a522.14,522.14,0,0,1,101.33,23.83c58.07,19.73,114.06,45.18,173.67,59.9s125.44,17.62,180.94-6.75c19.61-8.65,37.14-20.2,54-33.1,30.94-23.71,60.9-53.95,85.37-82.94"/><path class="cls-44" d="M46.12,430.48c95.56-27.11,174-99.6,254.5-80.58,56-26.6,115.07-20.72,180.65-8.45C550,354.28,623.66,375.85,695,389.83c13,2.54,25.93,4.88,38.75,6.92,93.1,14.74,190,15.19,282.75-11.88,115-33.79,226.75-130.49,348-125.09,56.37,2.51,101.78,25.6,153.68,39a293.1,293.1,0,0,0,47.8,8.15c50.77,4.57,105-2.14,156-15.05,78.79-20,145.85-57.28,222.27-77.28,49.33-12.95,101.61-14.53,153-8a537.52,537.52,0,0,1,100.91,23.31C2256,249,2312,273.73,2371.36,288c59.54,14.32,124.7,17.18,180.2-6.32,19.59-8.35,37.21-19.5,54.16-32,31.16-23,61.58-52.68,85.15-82"/><path class="cls-45" d="M43.71,420c98.6-28.8,181-102.2,265.3-78.28,55.73-23.24,114.08-15.25,179.25-2.24,68.33,13.6,141.66,34.59,212.74,47.65q19.44,3.57,38.6,6.41c92.81,13.5,189,12.62,281.15-14.71,114.43-34.17,225.69-128.52,346-125.8,56,1.26,101.61,22.09,153.43,33.9a310.41,310.41,0,0,0,47.62,7c50.55,3.67,104.44-3.17,155.16-15.71,78.43-19.49,145.8-54.9,222-73.71,49.19-12.19,101.18-13.49,152.3-7.07a552.85,552.85,0,0,1,100.5,22.8c57.74,18.68,113.62,42.62,172.77,56.5,59.31,13.91,124,16.74,179.45-5.91,19.57-8,37.28-18.78,54.35-30.89,31.39-22.26,62.28-51.41,85-81.1"/><path class="cls-46" d="M41.29,409.51c101.65-30.47,188.07-104.8,276.11-76,55.45-19.87,113.09-9.78,177.86,4,67.89,14.38,140.92,34.78,211.72,46.94,12.91,2.2,25.74,4.2,38.47,5.9,92.5,12.24,188,10,279.54-17.55,113.9-34.54,224.64-126,344-126.51,55.6-.23,101.43,18.58,153.17,28.84a332.58,332.58,0,0,0,47.45,5.91c50.32,2.77,103.83-4.19,154.36-16.38,78.08-18.93,145.75-52.51,221.79-70.14,49.06-11.42,100.75-12.45,151.61-6.09A571.93,571.93,0,0,1,2197.5,210.7c57.57,18.15,113.4,41.34,172.31,54.81C2428.91,279,2493,281.8,2548.53,260c19.55-7.72,37.35-18.08,54.54-29.79,31.61-21.54,63-50.14,84.74-80.17"/><path class="cls-47" d="M38.88,399C143.57,366.87,234,291.63,325.79,325.36c55.16-16.51,112.1-4.31,176.47,10.17,67.45,15.15,140.18,35,210.71,46.21q19.29,3.06,38.32,5.39c92.21,11,187,7.45,277.94-20.38,113.36-34.92,223.58-124.59,342-127.23,55.22-1.23,101.25,15.08,152.91,23.79a357.74,357.74,0,0,0,47.28,4.79c50.09,1.86,103.21-5.22,153.56-17.05,77.72-18.36,145.7-50.11,221.55-66.56,48.92-10.66,100.32-11.41,150.92-5.12a592.08,592.08,0,0,1,99.68,21.76c57.4,17.63,113.17,40.07,171.86,53.12,58.88,13.07,122.5,15.85,178-5.07,19.54-7.42,37.42-17.38,54.74-28.69,31.83-20.81,63.65-48.86,84.52-79.25"/><path class="cls-48" d="M36.47,388.54c107.73-33.84,202.15-110,297.71-71.36,54.87-13.14,111.12,1.15,175.07,16.38C576.27,349.48,648.7,368.7,719,379q19.23,2.82,38.19,4.88c91.9,9.75,186,4.88,276.33-23.21,112.83-35.3,222.52-122.62,340.07-127.94,54.82-2.48,101.07,11.57,152.64,18.73a388.51,388.51,0,0,0,47.11,3.67c49.86,1,102.6-6.25,152.75-17.72,77.38-17.8,145.66-47.72,221.32-63,48.78-9.89,99.9-10.37,150.23-4.14a612.68,612.68,0,0,1,99.27,21.25c57.23,17.1,112.95,38.78,171.4,51.42,58.66,12.65,121.77,15.4,177.24-4.65,19.52-7.11,37.49-16.68,54.92-27.6,32.06-20.08,64.35-47.58,84.32-78.32"/><path class="cls-49" d="M34.05,378.05C144.83,342.54,243.25,265.46,342.57,309c54.59-9.77,110.13,6.62,173.68,22.59,66.58,16.69,138.71,35.33,208.69,44.75q19.15,2.57,38,4.38c91.6,8.5,185,2.29,274.72-26.05C1150,319,1259.18,234,1375.79,226c54.44-3.73,100.9,7.95,152.38,13.67a433.89,433.89,0,0,0,46.94,2.55c49.63.06,102-7.27,152-18.39,77-17.24,145.61-45.33,221.08-59.42,48.65-9.12,99.47-9.32,149.55-3.16A637,637,0,0,1,2196.54,182c57.07,16.58,112.73,37.51,170.95,49.72,58.44,12.25,121,15,176.49-4.22,19.51-6.8,37.56-16,55.12-26.5,32.28-19.35,65-46.31,84.1-77.4"/><path class="cls-50" d="M31.64,367.57C145.46,330.37,247.87,252.38,351,300.82c54.3-6.41,109.14,12.09,172.29,28.8,66.14,17.47,138,35.51,207.67,44,12.73,1.54,25.37,2.85,37.91,3.86,91.31,7.26,183.94-.29,273.13-28.88,111.75-36.05,220.4-118.7,336.08-129.37,54-5,100.71,4.55,152.12,8.62,15.2,1.26,30.85,1.69,46.77,1.42,49.4-.83,101.37-8.29,151.15-19.05,76.66-16.67,145.56-42.94,220.84-55.84,48.51-8.36,99-8.29,148.86-2.2a662.33,662.33,0,0,1,98.44,20.23c56.9,16,112.51,36.22,170.5,48,58.21,11.83,120.3,14.52,175.74-3.81,19.5-6.49,37.64-15.26,55.32-25.39,32.5-18.62,65.72-45,83.89-76.48"/><path class="cls-51" d="M29.23,357.08C146.09,318.2,252.5,239.29,359.35,292.64c54-3,108.15,17.56,170.89,35C596,345.89,667.49,363.34,736.91,371q19,2.07,37.77,3.35c91,6,182.92-2.87,271.52-31.71,111.21-36.43,219.35-116.75,334.09-130.08,53.67-6.23,100.54,1,151.86,3.56,15.17.8,30.75.86,46.61.3,49.16-1.73,100.75-9.31,150.33-19.72,76.32-16.11,145.52-40.55,220.61-52.27,48.37-7.59,98.61-7.24,148.17-1.22a692.81,692.81,0,0,1,98,19.71c56.73,15.52,112.29,34.95,170,46.33,58,11.41,119.57,14.08,175-3.39,19.47-6.18,37.7-14.56,55.5-24.29,32.73-17.9,66.42-43.77,83.68-75.56"/><path class="cls-52" d="M26.81,346.59C146.72,306,257.13,226.21,367.74,284.46c53.73.32,107.17,23,169.5,41.21,65.28,19,136.51,35.88,205.66,42.58q18.93,1.81,37.62,2.85c90.71,4.76,181.91-5.45,269.92-34.55,110.68-36.8,218.29-114.8,332.1-130.79,53.28-7.49,100.36-2.47,151.6-1.5,15.14.34,30.66,0,46.44-.82,48.93-2.63,100.13-10.34,149.53-20.39,76-15.54,145.47-38.16,220.37-48.69,48.24-6.83,98.18-6.21,147.48-.25a724.52,724.52,0,0,1,97.62,19.2c56.57,15,112.07,33.66,169.59,44.63,57.78,11,118.83,13.63,174.26-3a320.42,320.42,0,0,0,55.7-23.19c32.95-17.17,67.1-42.5,83.47-74.64"/><path class="cls-53" d="M24.4,336.11c123-42.24,237.36-123,351.73-59.83,53.45,3.69,106.18,28.49,168.11,47.42,64.84,19.79,135.77,36.07,204.64,41.85q18.87,1.57,37.49,2.34c90.4,3.51,180.89-8,268.31-37.38,110.14-37.18,217.24-112.85,330.11-131.5,52.9-8.75,100.18-6,151.34-6.56,15.11-.12,30.57-.81,46.27-1.94,48.7-3.54,99.52-11.37,148.73-21.06,75.61-15,145.42-35.77,220.13-45.12,48.1-6.06,97.75-5.16,146.79.73a759.17,759.17,0,0,1,97.2,18.68c56.41,14.47,111.86,32.39,169.15,42.93,57.55,10.58,118.09,13.19,173.52-2.54A331,331,0,0,0,2593.81,162c33.17-16.45,67.79-41.23,83.25-73.72"/><path class="cls-54" d="M22,325.62C148,281.71,266.38,200,384.52,268.1c53.16,7,105.19,34,166.71,53.63,64.41,20.56,135,36.25,203.64,41.13q18.79,1.32,37.35,1.82c90.1,2.27,179.87-10.61,266.7-40.21,109.61-37.56,216.14-111.12,328.12-132.22,52.49-10.1,100-9.48,151.08-11.61,15.07-.58,30.47-1.64,46.1-3.06,48.47-4.44,98.91-12.39,147.92-21.73,75.26-14.42,145.38-33.38,219.9-41.54,48-5.3,97.32-4.12,146.11,1.7a803.16,803.16,0,0,1,96.78,18.16c56.24,13.94,111.64,31.11,168.69,41.24,57.34,10.17,117.37,12.75,172.78-2.13a339.13,339.13,0,0,0,56.09-21c33.39-15.71,68.47-39.94,83-72.79"/><path class="cls-55" d="M19.57,315.14c129-45.6,240.73-106.2,373.34-55.22,50.31,19.33,104.2,39.43,165.32,59.84,64,21.33,134.3,36.43,202.62,40.4q18.74,1.08,37.21,1.31a779.84,779.84,0,0,0,265.1-43c109.07-37.94,215.07-109.16,326.13-132.93,52.11-11.35,99.83-13,150.82-16.67,15-1,30.38-2.47,45.93-4.18,48.24-5.34,98.29-13.42,147.12-22.4,74.91-13.85,145.33-31,219.66-38,47.83-4.53,96.89-3.08,145.42,2.68a848.18,848.18,0,0,1,96.37,17.65c56.08,13.41,111.42,29.83,168.24,39.54,57.11,9.75,116.63,12.3,172-1.71a348.91,348.91,0,0,0,56.27-19.89c33.62-15,69.17-38.67,82.84-71.87"/><path class="cls-56" d="M17.16,304.65c132.08-47.28,248.3-111.24,384.14-52.91,50,21.45,103.22,44.9,163.93,66,63.54,22.11,133.56,36.62,201.61,39.68q18.66.82,37.07.81c89.5-.23,177.84-15.77,263.5-45.87,108.53-38.32,214-107.21,324.13-133.65,51.72-12.61,99.65-16.51,150.56-21.73,15-1.5,30.29-3.3,45.76-5.3,48-6.24,97.68-14.44,146.32-23.07,74.55-13.29,145.28-28.6,219.42-34.4,47.69-3.76,96.46-2,144.73,3.66a903.05,903.05,0,0,1,96,17.13c55.91,12.89,111.2,28.55,167.78,37.85,56.9,9.33,115.9,11.86,171.3-1.29a361.68,361.68,0,0,0,56.47-18.79c33.84-14.26,69.86-37.4,82.62-70.94"/><path class="cls-57" d="M14.75,294.16c135.12-49,256.13-116.45,394.94-50.61,49.74,23.6,102.23,50.38,162.53,72.26,63.11,22.88,132.83,36.81,200.6,38.95q18.6.58,36.93.3c89.21-1.47,176.83-18.35,261.9-48.7,108-38.7,212.94-105.25,322.14-134.37,51.33-13.85,99.48-20,150.3-26.78q22.47-2.94,45.59-6.43c47.79-7.13,97.07-15.46,145.51-23.73,74.21-12.73,145.24-26.2,219.19-30.82,47.56-3,96-1,144,4.63A963.45,963.45,0,0,1,2194,105.48c55.74,12.36,111,27.27,167.33,36.15,56.68,8.91,115.16,11.41,170.55-.87a374.42,374.42,0,0,0,56.67-17.69c34.06-13.54,70.54-36.13,82.41-70"/><path class="cls-58" d="M12.33,283.68C150.5,233,276.56,161.89,418.08,235.37c49.63,25.77,101.24,55.84,161.14,78.47a604.94,604.94,0,0,0,199.59,38.23q18.51.33,36.79-.22c88.9-2.72,175.81-20.92,260.29-51.53,107.46-39.08,211.88-103.29,320.16-135.08,50.93-15.1,99.29-23.52,150-31.84q22.41-3.63,45.42-7.55c47.56-8,96.45-16.49,144.71-24.4,73.85-12.16,145.19-23.81,219-27.25,47.42-2.23,95.6,0,143.35,5.61,31.86,3.7,63.67,9.42,95.14,16.1,55.58,11.83,110.75,26,166.88,34.45,56.45,8.5,114.43,11,169.81-.44a386.29,386.29,0,0,0,56.85-16.59c34.29-12.81,71.24-34.86,82.2-69.1"/><path class="cls-59" d="M9.92,273.19c141.21-52.32,272.56-127.19,416.55-46,49.63,28,100.25,61.31,159.75,84.68,62.23,24.42,131.35,37.17,198.57,37.5q18.45.08,36.65-.72c88.61-4,174.81-23.51,258.69-54.37C1187.05,254.83,1291,193,1398.3,158.49c50.55-16.36,99.11-27,149.78-36.9q22.35-4.32,45.25-8.67c47.32-8.93,95.83-17.51,143.9-25.07,73.5-11.6,145.14-21.42,218.71-23.67,47.28-1.47,95.17,1.08,142.67,6.57,31.67,3.67,63.33,9.21,94.72,15.6,55.41,11.3,110.53,24.71,166.42,32.75,56.24,8.09,113.7,10.53,169.07,0a400.53,400.53,0,0,0,57-15.48c34.51-12.09,71.92-33.59,82-68.18"/><path class="cls-60" d="M7.51,262.71c144.25-54,281.1-132.65,427.35-43.7,49.74,30.26,99.26,66.78,158.35,90.89,61.8,25.19,130.62,37.35,197.57,36.77q18.38-.17,36.51-1.23c88.31-5.22,173.79-26.09,257.08-57.2,106.39-39.83,209.76-99.36,316.18-136.5,50.16-17.61,98.94-30.54,149.52-42q22.31-5,45.08-9.79c47.09-9.84,95.22-18.54,143.1-25.74,73.14-11,145.09-19,218.47-20.1a1104.61,1104.61,0,0,1,142,7.55c31.49,3.62,63,9,94.31,15.08,55.24,10.78,110.31,23.43,166,31.06,56,7.67,113,10.09,168.33.39a415.08,415.08,0,0,0,57.24-14.39c34.73-11.35,72.61-32.31,81.77-67.25"/><path class="cls-61" d="M5.1,252.22c147.29-55.68,289.82-138.11,438.15-41.39,49.94,32.57,98.28,72.25,157,97.09,61.36,26,129.88,37.55,196.55,36.05q18.32-.41,36.38-1.74c88-6.46,172.77-28.66,255.47-60C1194.46,242,1297.31,184.8,1402.8,145a1401.75,1401.75,0,0,1,149.26-47q22.26-5.7,44.91-10.91c46.86-10.74,94.6-19.56,142.29-26.41,72.8-10.47,145-16.64,218.24-16.52a1262.94,1262.94,0,0,1,141.29,8.52c31.32,3.58,62.66,8.76,93.9,14.57,55.07,10.24,110.09,22.15,165.52,29.36,55.79,7.25,112.23,9.64,167.58.81a429.43,429.43,0,0,0,57.43-13.29c35-10.63,73.31-31,81.57-66.33"/><path class="cls-62" d="M2.68,241.73C153,184.37,301.4,98.17,451.64,202.65c50.23,34.94,97.29,77.72,155.57,103.3,60.93,26.75,129.14,37.73,195.54,35.32Q821,340.61,839,339c87.71-7.71,171.76-31.25,253.87-62.87,105.31-40.58,207.64-95.44,312.2-137.93a1481.94,1481.94,0,0,1,149-52.07q22.2-6.39,44.74-12a1325.75,1325.75,0,0,1,141.49-27.08,1418.53,1418.53,0,0,1,218-12.95c46.87.83,93.88,4.21,140.6,9.5,31.14,3.53,62.33,8.54,93.49,14,54.91,9.72,109.87,20.87,165.06,27.67,55.58,6.83,111.5,9.19,166.85,1.23a449.53,449.53,0,0,0,57.62-12.19c35.18-9.9,74-29.76,81.35-65.41"/><path class="cls-63" d="M.27,231.25c153.39-59,307.76-149,459.76-36.78,50.59,37.35,96.3,83.19,154.17,109.51,60.5,27.52,128.41,37.91,194.53,34.6,284.1-14.24,523.08-204.77,791.88-277.39,162.49-43.89,332-45.36,498.36-26.64,159.54,18,321,71.69,481.61,30.07,35.4-9.17,74.68-28.49,81.14-64.49"/><path class="cls-64" d="M3.88,254.1c154.28-58.77,306.38-146.36,461.4-43.76C518.41,245.5,569.1,287.07,630.3,314a460.1,460.1,0,0,0,197.17,38.11c277.32-8.32,510.44-194.31,773.39-263.77,160.15-41.64,327.37-43.25,491.21-26,158.2,16.23,319,70.05,476.35,23.2,39.32-11.7,81.73-37.32,94.37-73.06"/><path class="cls-65" d="M7.49,277C162.66,218.45,313,133,470.53,226.2c55.84,33,111.32,70.3,175.88,97.77,63.35,26.95,132.79,45.79,199.8,41.62,269.92-16.8,497.54-184.86,754.9-250.16,157.65-40,322.67-40.71,484.06-25.36C2242,105,2402,157.38,2556.26,106.41c43.31-14.32,88.79-46.15,107.61-81.64"/><path class="cls-66" d="M11.1,299.81c156.06-58.24,305.14-141.74,464.67-57.74C534.51,273,594.59,306,662.51,334c64.75,26.71,134.87,49.67,202.44,45.13,262.87-17.63,484.78-174.87,736.41-236.54,155.24-38.06,318-38.4,476.91-24.71,155.47,13.39,314.52,63.76,465.84,9.46,47.33-17,95.83-55,120.83-90.22"/><path class="cls-67" d="M14.72,322.66c157-58,305.21-139.84,466.3-64.73,61.78,28.81,126.3,57.48,197.59,86,66.15,26.49,136.88,53.5,205.08,48.65,255.85-18.18,472-164.87,717.91-222.94,152.85-36.09,313.34-36.1,469.77-24.06,154.12,11.86,312.05,59.61,460.58,2.59C2583.32,128.47,2634.84,84.4,2666,49.4"/><path class="cls-68" d="M18.33,345.52c157.84-57.7,305.7-138.3,467.94-71.72,65,26.67,133.77,51.09,208.44,80.14,67.54,26.29,138.82,57.27,207.72,52.17,248.86-18.43,459.31-154.86,699.42-209.33,150.46-34.13,308.68-33.81,462.62-23.42,152.78,10.32,309.46,55,455.32-4.27,55.42-22.52,109.94-72.63,147.3-107.37"/><path class="cls-69" d="M21.94,368.37c158.73-57.43,306.55-137.1,469.58-78.71,68.31,24.47,141.24,44.72,219.29,74.28,68.92,26.09,140.69,61,210.36,55.67,241.91-18.37,446.6-144.82,680.93-195.71,148.08-32.16,304-31.54,455.47-22.78s306.76,50,450.07-11.14c59.46-25.38,117-81.45,160.53-115.95"/><path class="cls-70" d="M25.55,391.23C185.17,334.06,333.24,255,496.76,305.53c71.77,22.2,148.7,38.35,230.15,68.4,70.29,25.93,142.56,52.92,213,59.19C1174.68,454,1373.8,298.36,1602.35,251c145.7-30.19,299.36-29.28,448.32-22.13,150.11,7.2,304,44.78,444.81-18,63.49-28.31,124-90.27,173.76-124.52"/><path class="cls-71" d="M29.16,414.08C189.67,357.18,338.24,278.27,502,321.39c75.32,19.84,156.15,32,241,62.53,71.64,25.77,144.43,55,215.63,62.7,227.47,24.71,421.2-124.67,643.95-168.49,143.34-28.19,294.71-27,441.16-21.48,148.78,5.62,301.11,39.31,439.56-24.88,67.51-31.3,131.09-99.1,187-133.1"/><path class="cls-72" d="M32.78,436.93c161.4-56.62,310.64-135.7,474.48-99.67,79,17.36,163.6,25.68,251.86,56.66,73,25.62,146.27,57,218.27,66.21,220.14,28.24,408.53-114.57,625.45-154.88,141-26.2,290.07-24.79,434-20.84,147.46,4,298.17,33.65,434.3-31.75,71.5-34.35,138.15-107.93,200.23-141.68"/><path class="cls-73" d="M36.39,459.79C198.68,403.43,348.75,323.87,512.5,353.12c82.66,14.77,171,19.37,262.72,50.79,74.36,25.49,148.1,58.94,220.91,69.73,212.78,31.5,395.87-104.44,607-141.27,138.64-24.19,285.43-22.57,426.87-20.2,146.13,2.45,295.16,27.86,429.05-38.62,75.46-37.46,145.19-116.75,213.46-150.25"/><path class="cls-74" d="M40,482.64C203.18,426.55,354.24,392.32,517.75,369c86.35-12.33,178.49,13.06,273.57,44.91,75.71,25.37,149.9,60.88,223.55,73.24,205.42,34.49,383.22-94.27,588.47-127.65,136.3-22.17,280.81-16.82,419.72-19.56,144.79-2.85,292.09,21.93,423.79-45.48,79.39-40.64,152.25-125.58,226.69-158.83"/><path class="cls-75" d="M43.61,505.49C207.68,449.67,361.44,414.22,523,384.85c89.16-16.2,185.92,6.77,284.42,39,77.06,25.25,151.68,62.75,226.19,76.75,198.05,37.21,370.58-84.08,570-114,134-20.13,276.22-14.46,412.57-18.9,143.42-4.68,289,15.9,418.53-52.36,83.3-43.88,159.3-134.4,239.93-167.41"/><path class="cls-76" d="M47.22,528.35c165-55.55,321.28-93,481-127.63,92-20,193.35.48,295.28,33.17C901.93,459,977,498.47,1052.35,514.15c190.69,39.68,358-73.85,551.49-100.43,131.65-18.08,271.51-16,405.42-18.26,142.18-2.42,285.8,9.8,413.28-59.23,87.15-47.19,166.35-143.23,253.15-176"/><path class="cls-77" d="M50.83,551.2c165.86-55.28,324.52-95.37,482.66-134.62,94.89-23.55,200.79-5.78,306.14,27.3,79.75,25.05,155.22,66.35,231.46,83.78,183.34,41.9,345.36-63.59,533-86.82,129.34-16,266.88-13.83,398.27-17.62,140.87-4.07,282.58,3.63,408-66.09,91-50.57,173.4-152.06,266.39-184.56"/><path class="cls-78" d="M54.45,574.06C221.19,519,382,475.74,538.74,432.45c97.83-27,208.21-12.05,317,21.42,81.09,25,157,68.06,234.1,87.29,176,43.89,332.76-53.29,514.5-73.2,127.05-13.93,262.25-11.68,391.13-17,139.56-5.73,279.33-2.6,402.76-73,94.76-54,180.46-160.88,279.62-193.14"/><path class="cls-79" d="M58.06,596.91C225.69,542.16,388.3,495.16,544,448.31,644.81,418,759.63,430,871.83,463.87c82.43,24.87,158.75,69.7,236.74,90.8,168.73,45.66,320.18-42.95,496-59.6,124.76-11.81,257.62-9.55,384-16.33,138.25-7.41,276-8.88,397.51-79.83,98.48-57.51,187.5-169.7,292.84-201.71"/><path class="cls-80" d="M61.67,619.76C230.2,565.28,394.35,514.18,549.24,464.18c103.88-33.54,223.06-24.54,338.69,9.68,83.77,24.79,160.54,71.26,239.38,94.32,161.47,47.21,307.62-32.57,477.52-46,122.47-9.67,253-7.44,376.82-15.68,136.95-9.12,272.71-15.21,392.26-86.7,102.17-61.1,194.56-178.54,306.08-210.29"/><path class="cls-81" d="M65.28,642.62C234.7,588.41,400.12,532.86,554.48,480c107-36.62,230.48-30.77,349.55,3.81,85.11,24.72,162.34,72.74,242,97.83,154.27,48.58,295.06-22.13,459-32.37,120.2-7.51,248.35-5.35,369.67-15,135.64-10.84,269.34-21.57,387-93.57,105.81-64.75,201.61-187.36,319.31-218.86"/><path class="cls-82" d="M68.89,665.47c170.31-53.94,328.4-148.71,490.84-169.56,116.17-14.92,237.9-37,360.41-2.06,86.44,24.65,164.16,74.12,244.65,101.34,147.12,49.75,282.51-11.65,440.54-18.76,117.93-5.31,243.72-3.27,362.52-14.4,134.33-12.58,265.94-27.95,381.75-100.44,109.38-68.47,208.66-196.18,332.54-227.44"/><path class="cls-83" d="M72.51,688.33C243.7,634.65,402.37,537.44,565,511.77c119.7-18.89,245.31-43.21,371.26-7.93,87.78,24.59,166,75.4,247.29,104.85,140,50.76,270.08-12.11,422-5.15,115.6,5.3,239.09-1.21,355.38-13.75,133-14.34,262.51-34.36,376.49-107.3,112.91-72.27,215.71-205,345.77-236"/><path class="cls-84" d="M76.12,711.18C248.21,657.77,407.35,558,570.23,527.64c123.16-23,252.72-49.42,382.11-13.81,89.12,24.53,168,76.57,249.93,108.37,133,51.6,257.76-1.22,403.55,8.46,113.17,7.52,234.45.83,348.23-13.1,131.7-16.13,259-40.79,371.23-114.18,116.38-76.13,222.77-213.84,359-244.59"/><path class="cls-85" d="M79.73,734c173-53.14,332.5-155.46,495.74-190.53,126.57-27.19,260.15-55.61,393-19.67,90.46,24.47,169.94,77.6,252.57,111.87,126.11,52.31,245.43,9.86,385.06,22.08,110.75,9.69,229.81,2.84,341.08-12.46,130.38-17.93,255.55-47.23,366-121.05,119.77-80.07,229.81-222.66,372.23-253.17"/><path class="cls-86" d="M83.34,756.89C257.21,704,417,599.05,580.72,559.37c129.89-31.49,267.56-61.8,403.82-25.55,91.79,24.42,172,78.51,255.21,115.39,119.28,52.88,233.08,21.13,366.57,35.69,108.33,11.81,225.16,4.84,333.93-11.82,129.06-19.76,252-53.68,360.72-127.91,123.12-84.09,236.86-231.49,385.47-261.75"/><path class="cls-87" d="M87,779.74c174.76-52.6,334.72-160.24,499-204.51,133.13-35.87,275-68,414.67-31.42,93.13,24.37,174.17,79.25,257.85,118.91,112.56,53.33,219.84,41.67,348.08,49.29,106.64,6.34,220.51,6.82,326.78-11.17,127.72-21.62,248.47-60.14,355.46-134.78,126.39-88.18,243.92-240.31,398.7-270.32"/><path class="cls-88" d="M90.56,802.59C266.22,750.26,426.23,639.92,591.22,591.1c136.3-40.34,282.37-74.16,425.53-37.29,94.46,24.32,176.44,79.82,260.48,122.41,106,53.7,207.29,52.55,329.59,62.91,104.37,8.84,215.85,8.78,319.62-10.53,126.39-23.51,244.9-66.6,350.21-141.65,129.6-92.35,251-249.14,411.94-278.9"/><path class="cls-89" d="M94.18,825.45C270.72,773.38,430.69,660.32,596.46,607c139.41-44.87,289.79-80.33,436.39-43.16C1128.64,588.08,1211.72,644,1296,689.73c99.48,54,194.72,63.49,311.09,76.52,102.08,11.42,211.19,10.71,312.48-9.88,125-25.43,241.29-73.08,345-148.52,132.73-96.6,258-258,425.16-287.48"/><path class="cls-90" d="M97.79,848.3C275.22,796.5,435,680.71,601.71,622.82c142.43-49.46,297.19-86.48,447.24-49,97.13,24.25,181.47,80.39,265.76,129.44,93.16,54.23,182.11,74.52,292.6,90.14,99.77,14.09,206.51,12.63,305.33-9.24,123.67-27.37,237.65-79.55,339.7-155.39,135.79-100.92,265.07-266.79,438.4-296"/><path class="cls-91" d="M101.4,871.16C279.72,819.63,439.3,701.09,607,638.69c145.38-54.11,304.6-92.65,458.09-54.91,98.47,24.21,184.29,80.35,268.4,133,87,54.42,169.47,85.63,274.11,103.74,97.41,16.87,201.82,14.54,298.18-8.59,122.29-29.35,234-86,334.44-162.26C2379,544.31,2512.31,374,2691.81,345"/><path class="cls-92" d="M105,894C284.22,842.75,443.47,721.48,612.2,654.55c148.27-58.8,311.95-98.54,469-60.77,99.76,24.33,187.36,80.06,271,136.47,81,54.62,156.77,96.81,255.62,117.35,95,19.74,197.12,16.41,291-8,120.89-31.35,230.28-92.47,329.19-169.12,141.67-109.8,279.17-284.45,464.86-313.21"/><path class="cls-93" d="M108.62,916.86c180.11-51,338.93-175,508.83-246.44,151.08-63.54,319.39-104.81,479.81-66.65,101.11,24.22,190.71,79.53,273.67,140,75.26,54.85,144,108.09,237.13,131,92.53,22.73,192.4,18.27,283.88-7.3,119.48-33.41,226.56-98.94,323.93-176C2360.36,577.06,2502.1,398.15,2694,369.64"/><path class="cls-94" d="M112.24,939.72c181-50.73,339.3-177.44,510.46-253.44,153.83-68.3,326.82-111.07,490.66-72.52,102.46,24.12,194.41,78.74,276.31,143.5,69.73,55.14,131.15,119.43,218.63,144.57,90,25.87,187.68,20.12,276.74-6.65,118-35.48,222.81-105.39,318.67-182.87C2350.94,593.32,2497,410.22,2695,382"/></g></g></svg>