<svg xmlns="http://www.w3.org/2000/svg" xmlns:xlink="http://www.w3.org/1999/xlink" viewBox="0 0 814.9 5314"><defs><style>.cls-1{isolation:isolate;}.cls-14,.cls-15,.cls-2,.cls-3,.cls-47,.cls-48,.cls-50,.cls-69,.cls-70{fill:#0071bc;}.cls-2{opacity:0.05;}.cls-10,.cls-11,.cls-12,.cls-13,.cls-14,.cls-17,.cls-18,.cls-19,.cls-2,.cls-20,.cls-21,.cls-22,.cls-23,.cls-24,.cls-25,.cls-26,.cls-27,.cls-28,.cls-29,.cls-3,.cls-30,.cls-31,.cls-32,.cls-33,.cls-34,.cls-35,.cls-36,.cls-37,.cls-38,.cls-39,.cls-4,.cls-40,.cls-41,.cls-42,.cls-43,.cls-44,.cls-45,.cls-46,.cls-47,.cls-5,.cls-50,.cls-51,.cls-52,.cls-53,.cls-54,.cls-55,.cls-56,.cls-57,.cls-59,.cls-6,.cls-60,.cls-61,.cls-62,.cls-63,.cls-64,.cls-65,.cls-66,.cls-67,.cls-68,.cls-7,.cls-8,.cls-9{mix-blend-mode:screen;}.cls-3,.cls-40,.cls-49,.cls-51,.cls-57,.cls-69,.cls-8{opacity:0.2;}.cls-4{fill:url(#radial-gradient);}.cls-12,.cls-16,.cls-5{opacity:0.7;}.cls-5{fill:url(#radial-gradient-2);}.cls-6{fill:url(#radial-gradient-3);}.cls-47,.cls-48,.cls-7,.cls-71,.cls-9{opacity:0.5;}.cls-7{fill:url(#radial-gradient-4);}.cls-8{fill:url(#radial-gradient-5);}.cls-9{fill:url(#radial-gradient-6);}.cls-10,.cls-13{opacity:0.6;}.cls-10{fill:url(#radial-gradient-7);}.cls-11{opacity:0.8;fill:url(#radial-gradient-8);}.cls-12,.cls-13,.cls-16,.cls-49,.cls-51,.cls-52,.cls-58,.cls-71{fill:none;stroke:#0071bc;stroke-miterlimit:10;}.cls-14,.cls-15{opacity:0.3;}.cls-17,.cls-18,.cls-19,.cls-20,.cls-21,.cls-22,.cls-23,.cls-24,.cls-26,.cls-27,.cls-28,.cls-29,.cls-30,.cls-31,.cls-32,.cls-33,.cls-34,.cls-35,.cls-36,.cls-37,.cls-38,.cls-39,.cls-42,.cls-43,.cls-55,.cls-56,.cls-60,.cls-61,.cls-62,.cls-63,.cls-64,.cls-65,.cls-66,.cls-67{opacity:0.3;}.cls-17{fill:url(#radial-gradient-9);}.cls-18{fill:url(#radial-gradient-10);}.cls-19{fill:url(#radial-gradient-11);}.cls-20{fill:url(#radial-gradient-12);}.cls-21{fill:url(#radial-gradient-13);}.cls-22{fill:url(#radial-gradient-14);}.cls-23{fill:url(#radial-gradient-15);}.cls-24{fill:url(#radial-gradient-16);}.cls-25,.cls-41,.cls-44,.cls-45,.cls-46,.cls-52,.cls-58,.cls-70{opacity:0.1;}.cls-25{fill:url(#radial-gradient-17);}.cls-26{fill:url(#radial-gradient-18);}.cls-27{fill:url(#radial-gradient-19);}.cls-28{fill:url(#radial-gradient-20);}.cls-29{fill:url(#radial-gradient-21);}.cls-30{fill:url(#radial-gradient-22);}.cls-31{fill:url(#radial-gradient-23);}.cls-32{fill:url(#radial-gradient-24);}.cls-33{fill:url(#radial-gradient-25);}.cls-34{fill:url(#radial-gradient-26);}.cls-35{fill:url(#radial-gradient-27);}.cls-36{fill:url(#radial-gradient-28);}.cls-37{fill:url(#radial-gradient-29);}.cls-38{fill:url(#radial-gradient-30);}.cls-39{fill:url(#radial-gradient-31);}.cls-40{fill:url(#radial-gradient-32);}.cls-41{fill:url(#radial-gradient-33);}.cls-42{fill:url(#radial-gradient-34);}.cls-43{fill:url(#radial-gradient-35);}.cls-44{fill:url(#radial-gradient-36);}.cls-45{fill:url(#radial-gradient-37);}.cls-46{fill:url(#radial-gradient-38);}.cls-50{opacity:0.4;}.cls-53{fill:url(#radial-gradient-39);}.cls-54{fill:url(#radial-gradient-40);}.cls-55{fill:url(#radial-gradient-41);}.cls-56{fill:url(#radial-gradient-42);}.cls-57{fill:url(#radial-gradient-43);}.cls-59{fill:url(#radial-gradient-44);}.cls-60{fill:url(#radial-gradient-45);}.cls-61{fill:url(#radial-gradient-46);}.cls-62{fill:url(#radial-gradient-47);}.cls-63{fill:url(#radial-gradient-48);}.cls-64{fill:url(#radial-gradient-49);}.cls-65{fill:url(#radial-gradient-50);}.cls-66{fill:url(#radial-gradient-51);}.cls-67{fill:url(#radial-gradient-52);}.cls-68{opacity:0.15;fill:url(#radial-gradient-53);}</style><radialGradient id="radial-gradient" cx="483.32" cy="245" r="69" gradientUnits="userSpaceOnUse"><stop offset="0" stop-color="#c1272d"/><stop offset="1" stop-opacity="0"/></radialGradient><radialGradient id="radial-gradient-2" cx="424.32" cy="2166" r="69" xlink:href="#radial-gradient"/><radialGradient id="radial-gradient-3" cx="568.32" cy="1713" r="92" gradientUnits="userSpaceOnUse"><stop offset="0" stop-color="#0071bc"/><stop offset="0.04" stop-color="#06a" stop-opacity="0.9"/><stop offset="0.16" stop-color="#004b7d" stop-opacity="0.66"/><stop offset="0.28" stop-color="#003456" stop-opacity="0.46"/><stop offset="0.41" stop-color="#002137" stop-opacity="0.29"/><stop offset="0.54" stop-color="#00121f" stop-opacity="0.16"/><stop offset="0.67" stop-color="#00080e" stop-opacity="0.07"/><stop offset="0.82" stop-color="#000203" stop-opacity="0.02"/><stop offset="1" stop-opacity="0"/></radialGradient><radialGradient id="radial-gradient-4" cx="261.82" cy="41.5" r="41.5" gradientUnits="userSpaceOnUse"><stop offset="0" stop-color="#f7931e"/><stop offset="1" stop-opacity="0"/></radialGradient><radialGradient id="radial-gradient-5" cx="535.82" cy="1662.5" r="21.5" xlink:href="#radial-gradient-4"/><radialGradient id="radial-gradient-6" cx="546.82" cy="286.5" xlink:href="#radial-gradient-4"/><radialGradient id="radial-gradient-7" cx="6625.05" cy="1751" r="69" gradientTransform="translate(-15551.21) scale(2.42 1)" xlink:href="#radial-gradient"/><radialGradient id="radial-gradient-8" cx="280.32" cy="2269" r="192" gradientUnits="userSpaceOnUse"><stop offset="0" stop-color="#f7931e"/><stop offset="0.1" stop-color="#ca7819" stop-opacity="0.82"/><stop offset="0.23" stop-color="#955912" stop-opacity="0.6"/><stop offset="0.36" stop-color="#683e0d" stop-opacity="0.42"/><stop offset="0.49" stop-color="#422708" stop-opacity="0.27"/><stop offset="0.62" stop-color="#251605" stop-opacity="0.15"/><stop offset="0.75" stop-color="#110a02" stop-opacity="0.07"/><stop offset="0.88" stop-color="#040201" stop-opacity="0.02"/><stop offset="1" stop-opacity="0"/></radialGradient><radialGradient id="radial-gradient-9" cx="656.32" cy="1641" r="4" gradientUnits="userSpaceOnUse"><stop offset="0" stop-color="#fff"/><stop offset="1" stop-opacity="0"/></radialGradient><radialGradient id="radial-gradient-10" cx="537.32" cy="1866" r="4" gradientUnits="userSpaceOnUse"><stop offset="0" stop-color="#fff"/><stop offset="1"/></radialGradient><radialGradient id="radial-gradient-11" cx="623.32" cy="1787" r="8" xlink:href="#radial-gradient-9"/><radialGradient id="radial-gradient-12" cx="553.32" cy="745" r="8" xlink:href="#radial-gradient-9"/><radialGradient id="radial-gradient-13" cx="576.32" cy="613" r="8" xlink:href="#radial-gradient-9"/><radialGradient id="radial-gradient-14" cx="313.32" cy="1156" r="8" xlink:href="#radial-gradient-9"/><radialGradient id="radial-gradient-15" cx="556.32" cy="827" r="8" xlink:href="#radial-gradient-9"/><radialGradient id="radial-gradient-16" cx="630.32" cy="909" r="6.4" xlink:href="#radial-gradient-9"/><radialGradient id="radial-gradient-17" cx="638.32" cy="821" r="16" xlink:href="#radial-gradient-9"/><radialGradient id="radial-gradient-18" cx="421.32" cy="1272" r="8" xlink:href="#radial-gradient-9"/><radialGradient id="radial-gradient-19" cx="269.32" cy="336" r="8" xlink:href="#radial-gradient-9"/><radialGradient id="radial-gradient-20" cx="205.32" cy="336" r="8" xlink:href="#radial-gradient-9"/><radialGradient id="radial-gradient-21" cx="339.32" cy="454" r="8" xlink:href="#radial-gradient-9"/><radialGradient id="radial-gradient-22" cx="225.32" cy="413" r="8" xlink:href="#radial-gradient-9"/><radialGradient id="radial-gradient-23" cx="285.32" cy="1278" r="8" xlink:href="#radial-gradient-9"/><radialGradient id="radial-gradient-24" cx="524.32" cy="1976" r="8" xlink:href="#radial-gradient-9"/><radialGradient id="radial-gradient-25" cx="462.32" cy="2927" r="8" xlink:href="#radial-gradient-9"/><radialGradient id="radial-gradient-26" cx="581.32" cy="2626" r="8" xlink:href="#radial-gradient-9"/><radialGradient id="radial-gradient-27" cx="573.32" cy="3058" r="8" xlink:href="#radial-gradient-9"/><radialGradient id="radial-gradient-28" cx="454.32" cy="3285" r="8" xlink:href="#radial-gradient-9"/><radialGradient id="radial-gradient-29" cx="356.32" cy="3339" r="8" xlink:href="#radial-gradient-9"/><radialGradient id="radial-gradient-30" cx="429.32" cy="4055" r="8" xlink:href="#radial-gradient-9"/><radialGradient id="radial-gradient-31" cx="518.32" cy="2583" r="4" xlink:href="#radial-gradient-9"/><radialGradient id="radial-gradient-32" cx="589.32" cy="2560" r="4" xlink:href="#radial-gradient-9"/><radialGradient id="radial-gradient-33" cx="577.32" cy="2972" r="9.6" xlink:href="#radial-gradient-9"/><radialGradient id="radial-gradient-34" cx="511.32" cy="2589" r="4.8" xlink:href="#radial-gradient-9"/><radialGradient id="radial-gradient-35" cx="180.32" cy="562" r="8" xlink:href="#radial-gradient-9"/><radialGradient id="radial-gradient-36" cx="623.32" cy="1939" r="8" xlink:href="#radial-gradient-9"/><radialGradient id="radial-gradient-37" cx="270.32" cy="2709" r="30" xlink:href="#radial-gradient-9"/><radialGradient id="radial-gradient-38" cx="624.32" cy="1867" r="8" xlink:href="#radial-gradient-10"/><radialGradient id="radial-gradient-39" cx="552.32" cy="3478" r="175" gradientUnits="userSpaceOnUse"><stop offset="0" stop-color="#662d91"/><stop offset="0.11" stop-color="#532577" stop-opacity="0.82"/><stop offset="0.31" stop-color="#36184c" stop-opacity="0.53"/><stop offset="0.5" stop-color="#1e0d2b" stop-opacity="0.3"/><stop offset="0.68" stop-color="#0e0613" stop-opacity="0.13"/><stop offset="0.86" stop-color="#030205" stop-opacity="0.03"/><stop offset="1" stop-opacity="0"/></radialGradient><radialGradient id="radial-gradient-40" cx="493.32" cy="3606" r="62" xlink:href="#radial-gradient-39"/><radialGradient id="radial-gradient-41" cx="610.32" cy="3437" r="8" xlink:href="#radial-gradient-9"/><radialGradient id="radial-gradient-42" cx="540.32" cy="3440" r="5" xlink:href="#radial-gradient-9"/><radialGradient id="radial-gradient-43" cx="631.32" cy="3363" r="16" xlink:href="#radial-gradient-9"/><radialGradient id="radial-gradient-44" cx="191.32" cy="4324" r="187" gradientUnits="userSpaceOnUse"><stop offset="0" stop-color="#9e005d"/><stop offset="0.15" stop-color="#770046" stop-opacity="0.75"/><stop offset="0.34" stop-color="#4c002d" stop-opacity="0.48"/><stop offset="0.52" stop-color="#2b0019" stop-opacity="0.27"/><stop offset="0.7" stop-color="#13000b" stop-opacity="0.12"/><stop offset="0.86" stop-color="#050003" stop-opacity="0.03"/><stop offset="1" stop-opacity="0"/></radialGradient><radialGradient id="radial-gradient-45" cx="469.32" cy="4129" r="8" xlink:href="#radial-gradient-9"/><radialGradient id="radial-gradient-46" cx="251.32" cy="4769" r="8" xlink:href="#radial-gradient-9"/><radialGradient id="radial-gradient-47" cx="185.32" cy="4795" r="12" xlink:href="#radial-gradient-9"/><radialGradient id="radial-gradient-48" cx="247.32" cy="5119" r="12" xlink:href="#radial-gradient-9"/><radialGradient id="radial-gradient-49" cx="517.32" cy="5003" r="12" xlink:href="#radial-gradient-9"/><radialGradient id="radial-gradient-50" cx="287.32" cy="5302" r="12" xlink:href="#radial-gradient-9"/><radialGradient id="radial-gradient-51" cx="319.32" cy="5107" r="12" xlink:href="#radial-gradient-9"/><radialGradient id="radial-gradient-52" cx="499.32" cy="4261" r="8" xlink:href="#radial-gradient-9"/><radialGradient id="radial-gradient-53" cx="243.32" cy="4178" r="30" xlink:href="#radial-gradient-9"/></defs><title>triangles</title><g class="cls-1"><g id="Layer_2" data-name="Layer 2"><g id="Layer_2-2" data-name="Layer 2"><path class="cls-2" d="M730.32,2979.16l-191-57s23-39,23-36S730.32,2979.16,730.32,2979.16Z"/><polygon class="cls-3" points="337.32 2334 203.32 2377 270.32 2852 337.32 2334"/><circle class="cls-4" cx="483.32" cy="245" r="69"/><circle class="cls-5" cx="424.32" cy="2166" r="69"/><circle class="cls-6" cx="568.32" cy="1713" r="92"/><circle class="cls-7" cx="261.82" cy="41.5" r="41.5"/><circle class="cls-8" cx="535.82" cy="1662.5" r="21.5"/><circle class="cls-9" cx="546.82" cy="286.5" r="41.5"/><ellipse class="cls-10" cx="483.32" cy="1751" rx="167" ry="69"/><circle class="cls-11" cx="280.32" cy="2269" r="192"/><polygon class="cls-12" points="84.32 1493.31 291.54 1327.42 342.18 1368.74 84.32 1493.31"/><polygon class="cls-12" points="133.32 1154 421.34 1271.54 212.96 1284.92 133.32 1154"/><polygon class="cls-12" points="269.47 335.82 90.19 528.48 179.83 561.66 269.47 335.82"/><polygon class="cls-12" points="610.26 664.95 556.34 828.68 766.47 916.84 610.26 664.95"/><polygon class="cls-13" points="105.82 319.5 3.95 415.25 340.38 454.25 105.82 319.5"/><polygon class="cls-12" points="720.27 1572.34 797.68 1826.7 690.58 1772.57 720.27 1572.34"/><path class="cls-12" d="M256.62,758l-65.78,253.78s62.28,24.45,57.63,26.78S256.62,758,256.62,758Z"/><path class="cls-14" d="M655.87,1641.12l-57.62,160.65s202.56,196.74,204.88,190.34S655.87,1641.12,655.87,1641.12Z"/><polygon class="cls-14" points="599.97 1378.21 476.57 1594.16 506.26 1696.02 599.97 1378.21"/><polygon class="cls-15" points="777.82 1737.5 537.82 1865.5 623.82 2037.5 777.82 1737.5"/><polygon class="cls-16" points="777.82 1737.5 623.82 2037.5 728.82 2050.5 777.82 1737.5"/><polygon class="cls-16" points="537.82 1865.5 623.82 2037.5 523.82 1975.5 537.82 1865.5"/><polygon class="cls-16" points="537.82 1865.5 623.82 1760.5 777.82 1737.5 537.82 1865.5"/><path class="cls-16" d="M537.32,1865s-92-25-92-24,178,196,178,196Z"/><path class="cls-12" d="M748.32,835s-75-5-75-4-120.5-85.5-120.5-85.5Z"/><polygon class="cls-15" points="747.82 834.5 575.82 614.5 552.82 745.5 747.82 834.5"/><polygon class="cls-12" points="552.82 745.5 532.82 675.5 575.82 614.5 552.82 745.5"/><polygon class="cls-14" points="766.82 916.5 628.82 909.5 556.82 828.5 766.82 916.5"/><circle class="cls-17" cx="656.32" cy="1641" r="4"/><circle class="cls-18" cx="537.32" cy="1866" r="4"/><circle class="cls-19" cx="623.32" cy="1787" r="8"/><circle class="cls-20" cx="553.32" cy="745" r="8"/><circle class="cls-21" cx="576.32" cy="613" r="8"/><circle class="cls-22" cx="313.32" cy="1156" r="8"/><circle class="cls-23" cx="556.32" cy="827" r="8"/><circle class="cls-24" cx="630.32" cy="909" r="6.4"/><circle class="cls-25" cx="638.32" cy="821" r="16"/><circle class="cls-26" cx="421.32" cy="1272" r="8"/><circle class="cls-27" cx="269.32" cy="336" r="8"/><circle class="cls-28" cx="205.32" cy="336" r="8"/><circle class="cls-29" cx="339.32" cy="454" r="8"/><circle class="cls-30" cx="225.32" cy="413" r="8"/><circle class="cls-31" cx="285.32" cy="1278" r="8"/><circle class="cls-32" cx="524.32" cy="1976" r="8"/><circle class="cls-33" cx="462.32" cy="2927" r="8"/><circle class="cls-34" cx="581.32" cy="2626" r="8"/><circle class="cls-35" cx="573.32" cy="3058" r="8"/><circle class="cls-36" cx="454.32" cy="3285" r="8"/><circle class="cls-37" cx="356.32" cy="3339" r="8"/><circle class="cls-38" cx="429.32" cy="4055" r="8"/><circle class="cls-39" cx="518.32" cy="2583" r="4"/><circle class="cls-40" cx="589.32" cy="2560" r="4"/><circle class="cls-41" cx="577.32" cy="2972" r="9.6"/><circle class="cls-42" cx="511.32" cy="2589" r="4.8"/><circle class="cls-43" cx="180.32" cy="562" r="8"/><circle class="cls-44" cx="623.32" cy="1939" r="8"/><circle class="cls-45" cx="270.32" cy="2709" r="30"/><circle class="cls-46" cx="624.32" cy="1867" r="8"/><path class="cls-2" d="M665.32,2959c0,1-93,103-93,103l31-87Z"/><polygon class="cls-47" points="133.32 1154 309.32 1154 421.32 1271 133.32 1154"/><polygon class="cls-12" points="133.82 1154.5 356.82 1312.5 421.82 1271.5 133.82 1154.5"/><path class="cls-48" d="M243.82,1264.5s78-15,78-16-88,71-88,69S243.82,1264.5,243.82,1264.5Z"/><path class="cls-49" d="M690.82,2591.5s-111,35-111,34,70,1,70,1Z"/><polygon class="cls-12" points="321.32 1249 233.32 1318 268.32 1315 321.32 1249"/><path class="cls-50" d="M105.32,320s98,15,98,16,137,118,137,118Z"/><polygon class="cls-14" points="796.32 2989 512.32 2857 485.32 3006 796.32 2989"/><polygon class="cls-47" points="793.2 2988.01 511.32 2857 616.32 2857 793.2 2988.01"/><polygon class="cls-12" points="511.32 2857 484.32 3006 462.32 2928 511.32 2857"/><polygon class="cls-51" points="484.82 3006.5 792.82 2988.5 753.82 3038.5 484.82 3006.5"/><polygon class="cls-52" points="665.32 2959 572.32 3062 650.32 3012 665.32 2959"/><polygon class="cls-14" points="609.82 3436.5 452.82 3284.5 810.63 3231.03 609.82 3436.5"/><polygon class="cls-52" points="579.82 2625.5 552.82 2565.5 649.82 2626.5 579.82 2625.5"/><polygon class="cls-14" points="269.87 2848.79 203.32 2377 219.32 2658 269.87 2848.79"/><circle class="cls-53" cx="552.32" cy="3478" r="175"/><circle class="cls-54" cx="493.32" cy="3606" r="62"/><circle class="cls-55" cx="610.32" cy="3437" r="8"/><circle class="cls-56" cx="540.32" cy="3440" r="5"/><polygon class="cls-14" points="810.63 3231.03 356.32 3339 610.32 3437 810.63 3231.03"/><polygon class="cls-12" points="810.63 3231.03 356.32 3339 500.32 3231 810.63 3231.03"/><polygon class="cls-12" points="355.82 3338.5 609.82 3436.5 639.82 3509.5 355.82 3338.5"/><polygon class="cls-12" points="609.82 3436.5 810.63 3231.03 639.82 3509.5 609.82 3436.5"/><polygon class="cls-51" points="453.32 3285 610.32 3437 540.32 3440 453.32 3285"/><polygon class="cls-51" points="810.63 3231.03 609.82 3436.5 709.82 3467.5 810.63 3231.03"/><polygon class="cls-51" points="453.82 3284.5 810.63 3231.03 703.82 3186.5 453.82 3284.5"/><polygon class="cls-14" points="283.82 3603.5 347.82 3649.5 198.82 3859.5 283.82 3603.5"/><circle class="cls-57" cx="631.32" cy="3363" r="16"/><polygon class="cls-52" points="710.32 3363 518.32 3194 588.32 3171 710.32 3363"/><polygon class="cls-58" points="710.82 3363.5 588.82 3171.5 637.82 3186.5 710.82 3363.5"/><polygon class="cls-58" points="517.82 2742.5 482.82 2731.5 588.82 2720.5 517.82 2742.5"/><polygon class="cls-58" points="517.82 3193.5 518.82 3248.5 710.82 3363.5 517.82 3193.5"/><circle class="cls-59" cx="191.32" cy="4324" r="187"/><polygon class="cls-14" points="4.32 4028 499.32 4163 333.32 4345 4.32 4028"/><polygon class="cls-12" points="333.32 4345 499.32 4163 499.32 4260 333.32 4345"/><polygon class="cls-16" points="4.82 4027.5 499.82 4162.5 427.82 4053.5 4.82 4027.5"/><polygon class="cls-49" points="4.82 4027.5 333.82 4344.5 213.82 4357.5 4.82 4027.5"/><polygon class="cls-14" points="293.32 4157 481.32 4063 469.32 4131 293.32 4157"/><polygon class="cls-52" points="481.32 4063 469.32 4131 493.82 4137.5 481.32 4063"/><polygon class="cls-14" points="292.82 4156.5 468.82 4130.5 493.82 4137.5 292.82 4156.5"/><circle class="cls-60" cx="469.32" cy="4129" r="8"/><circle class="cls-61" cx="251.32" cy="4769" r="8"/><circle class="cls-62" cx="185.32" cy="4795" r="12"/><circle class="cls-63" cx="247.32" cy="5119" r="12"/><circle class="cls-64" cx="517.32" cy="5003" r="12"/><circle class="cls-65" cx="287.32" cy="5302" r="12"/><circle class="cls-66" cx="319.32" cy="5107" r="12"/><circle class="cls-67" cx="499.32" cy="4261" r="8"/><circle class="cls-68" cx="243.32" cy="4178" r="30"/><polygon class="cls-69" points="545.32 4846 312.32 4695 287.32 5302 545.32 4846"/><polygon class="cls-70" points="517.32 5004 185.32 4795 319.32 5107 517.32 5004"/><polygon class="cls-16" points="517.32 5004 185.32 4795 251.32 4769 517.32 5004"/><polygon class="cls-16" points="319.32 5107 185.32 4795 200.32 4992 319.32 5107"/><polygon class="cls-16" points="516.82 5003.5 318.82 5106.5 439.82 5091.5 516.82 5003.5"/><polygon class="cls-71" points="544.82 4845.5 286.82 5301.5 510.82 5100.5 544.82 4845.5"/><polygon class="cls-16" points="311.82 4694.5 544.82 4845.5 508.82 4741.5 311.82 4694.5"/><polygon class="cls-16" points="311.82 4694.5 286.82 5301.5 247.82 5120.5 311.82 4694.5"/></g></g></g></svg>